/*
 Navicat Premium Data Transfer

 Source Server         : localhost
 Source Server Type    : MySQL
 Source Server Version : 80025
 Source Host           : localhost:3306
 Source Schema         : xc_media

 Target Server Type    : MySQL
 Target Server Version : 80025
 File Encoding         : 65001

 Date: 11/09/2023 19:30:38
*/

SET NAMES utf8mb4;
SET FOREIGN_KEY_CHECKS = 0;

-- ----------------------------
-- Table structure for media_files
-- ----------------------------
DROP TABLE IF EXISTS `media_files`;
CREATE TABLE `media_files` (
  `id` varchar(32) CHARACTER SET utf8 COLLATE utf8_general_ci NOT NULL COMMENT '文件id,md5值',
  `company_id` bigint DEFAULT NULL COMMENT '机构ID',
  `company_name` varchar(255) CHARACTER SET utf8 COLLATE utf8_general_ci DEFAULT NULL COMMENT '机构名称',
  `filename` varchar(255) CHARACTER SET utf8 COLLATE utf8_general_ci NOT NULL COMMENT '文件名称',
  `file_type` varchar(12) CHARACTER SET utf8 COLLATE utf8_general_ci DEFAULT NULL COMMENT '文件类型（图片、文档，视频）',
  `tags` varchar(120) CHARACTER SET utf8 COLLATE utf8_general_ci DEFAULT NULL COMMENT '标签',
  `bucket` varchar(128) CHARACTER SET utf8 COLLATE utf8_general_ci DEFAULT NULL COMMENT '存储目录',
  `file_path` varchar(512) CHARACTER SET utf8 COLLATE utf8_general_ci DEFAULT NULL COMMENT '存储路径',
  `file_id` varchar(32) CHARACTER SET utf8 COLLATE utf8_general_ci NOT NULL COMMENT '文件id',
  `url` varchar(1024) CHARACTER SET utf8 COLLATE utf8_general_ci DEFAULT NULL COMMENT '媒资文件访问地址',
  `username` varchar(60) CHARACTER SET utf8 COLLATE utf8_general_ci DEFAULT NULL COMMENT '上传人',
  `create_date` datetime DEFAULT NULL COMMENT '上传时间',
  `change_date` datetime DEFAULT NULL COMMENT '修改时间',
  `status` varchar(12) CHARACTER SET utf8 COLLATE utf8_general_ci DEFAULT '1' COMMENT '状态,1:正常，0:不展示',
  `remark` varchar(32) CHARACTER SET utf8 COLLATE utf8_general_ci DEFAULT NULL COMMENT '备注',
  `audit_status` varchar(12) CHARACTER SET utf8 COLLATE utf8_general_ci DEFAULT NULL COMMENT '审核状态',
  `audit_mind` varchar(255) CHARACTER SET utf8 COLLATE utf8_general_ci DEFAULT NULL COMMENT '审核意见',
  `file_size` bigint DEFAULT NULL COMMENT '文件大小',
  PRIMARY KEY (`id`) USING BTREE,
  UNIQUE KEY `unique_fileid` (`file_id`) USING BTREE COMMENT '文件id唯一索引 '
) ENGINE=InnoDB DEFAULT CHARSET=utf8mb3 ROW_FORMAT=DYNAMIC COMMENT='媒资信息';

-- ----------------------------
-- Records of media_files
-- ----------------------------
BEGIN;
INSERT INTO `media_files` VALUES ('224a797b837aba5bcefcedd1de96802f', 1232141425, NULL, 'Day1-05.开发环境配置-IDEA-虚拟机-Git-前端.mp4', '001002', '课程视频', 'video', '2/2/224a797b837aba5bcefcedd1de96802f/224a797b837aba5bcefcedd1de96802f.mp4', '224a797b837aba5bcefcedd1de96802f', '/video/2/2/224a797b837aba5bcefcedd1de96802f/224a797b837aba5bcefcedd1de96802f.mp4', NULL, '2023-02-12 20:07:19', NULL, '1', NULL, '002003', NULL, 167941019);
INSERT INTO `media_files` VALUES ('26d86c1b3c2a5cbda3593c98f27415a6', 123456355, NULL, 'coursepublish8689626998423216887.html', '001001', NULL, 'mediafiles', 'course/117.html', '26d86c1b3c2a5cbda3593c98f27415a6', '/mediafiles/course/117.html', NULL, '2023-09-06 13:00:20', NULL, '1', NULL, '002003', NULL, 38659);
INSERT INTO `media_files` VALUES ('34ca8d8a522ea64ce5200c423755a03e', 1232141425, NULL, 'Day1-03.项目演示.mp4', '001002', '课程视频', 'video', '3/4/34ca8d8a522ea64ce5200c423755a03e/34ca8d8a522ea64ce5200c423755a03e.mp4', '34ca8d8a522ea64ce5200c423755a03e', '/video/3/4/34ca8d8a522ea64ce5200c423755a03e/34ca8d8a522ea64ce5200c423755a03e.mp4', NULL, '2023-02-12 20:04:40', NULL, '1', NULL, '002003', NULL, 160992129);
INSERT INTO `media_files` VALUES ('3706e9fb287258674c264313eb7a171b', 1232141425, NULL, 'Day6-01.文件预览开发.mp4', '001002', '课程视频', 'video', '3/7/3706e9fb287258674c264313eb7a171b/3706e9fb287258674c264313eb7a171b.mp4', '3706e9fb287258674c264313eb7a171b', '/video/3/7/3706e9fb287258674c264313eb7a171b/3706e9fb287258674c264313eb7a171b.mp4', NULL, '2023-02-12 20:15:22', NULL, '1', NULL, '002003', NULL, 138378506);
INSERT INTO `media_files` VALUES ('41958e4b531f206faec1fd1c1440b4f8', 123456355, NULL, 'coursepublish1439758656828952882.html', '001001', NULL, 'mediafiles', 'course/117.html', '41958e4b531f206faec1fd1c1440b4f8', '/mediafiles/course/117.html', NULL, '2023-09-06 12:56:01', NULL, '1', NULL, '002003', NULL, 38277);
INSERT INTO `media_files` VALUES ('4587c09aa23951690d5c94d55a8fd421', 1232141425, NULL, 'Day4-01.媒资管理模块需求分析.mp4', '001002', '课程视频', 'video', '4/5/4587c09aa23951690d5c94d55a8fd421/4587c09aa23951690d5c94d55a8fd421.mp4', '4587c09aa23951690d5c94d55a8fd421', '/video/4/5/4587c09aa23951690d5c94d55a8fd421/4587c09aa23951690d5c94d55a8fd421.mp4', NULL, '2023-02-12 20:13:03', NULL, '1', NULL, '002003', NULL, 67524298);
INSERT INTO `media_files` VALUES ('584cd42490bd199bc702610f36d5b4e3', 1232141425, NULL, 'Day2-01.课程查询-DAO接口.mp4', '001002', '课程视频', 'video', '5/8/584cd42490bd199bc702610f36d5b4e3/584cd42490bd199bc702610f36d5b4e3.mp4', '584cd42490bd199bc702610f36d5b4e3', '/video/5/8/584cd42490bd199bc702610f36d5b4e3/584cd42490bd199bc702610f36d5b4e3.mp4', NULL, '2023-02-12 20:12:37', NULL, '1', NULL, '002003', NULL, 109094288);
INSERT INTO `media_files` VALUES ('5fc72f93da1309cdf0d1fe1a6fa8a7ff', 123456355, NULL, 'coursepublish2141508840476876329.html', '001001', NULL, 'mediafiles', 'course/127.html', '5fc72f93da1309cdf0d1fe1a6fa8a7ff', '/mediafiles/course/127.html', NULL, '2023-08-28 21:19:44', NULL, '1', NULL, '002003', NULL, 35132);
INSERT INTO `media_files` VALUES ('69a642f35d5c25b5d37e99536f30684b', 123456355, NULL, 'coursepublish2236696956005301677.html', '001001', NULL, 'mediafiles', 'course/127.html', '69a642f35d5c25b5d37e99536f30684b', '/mediafiles/course/127.html', NULL, '2023-08-28 15:11:56', NULL, '1', NULL, '002003', NULL, 35053);
INSERT INTO `media_files` VALUES ('7d82500458e8e9c1f4d59b2f665f6970', 1232141425, NULL, 'Day5-01.上传图片优化-抽取代码.mp4', '001002', '课程视频', 'video', '7/d/7d82500458e8e9c1f4d59b2f665f6970/7d82500458e8e9c1f4d59b2f665f6970.mp4', '7d82500458e8e9c1f4d59b2f665f6970', '/video/7/d/7d82500458e8e9c1f4d59b2f665f6970/7d82500458e8e9c1f4d59b2f665f6970.mp4', NULL, '2023-02-12 20:15:23', NULL, '1', NULL, '002003', NULL, 190241347);
INSERT INTO `media_files` VALUES ('82aeab60244b0a5b17921f15c8304e23', 123456355, NULL, '661dd1ae883211ebb6edd017c2d2eca2.jpg', '001001', NULL, 'mediafiles', '2023/07/09/82aeab60244b0a5b17921f15c8304e23.jpg', '82aeab60244b0a5b17921f15c8304e23', '/mediafiles/2023/07/09/82aeab60244b0a5b17921f15c8304e23.jpg', NULL, '2023-07-09 23:21:34', NULL, '1', NULL, '002003', NULL, 351523);
INSERT INTO `media_files` VALUES ('8689ae3e40a2885fb310396ef265d644', 123456355, NULL, '254fdca7d01244d6a747ecf74bc5a563.jpg', '001001', NULL, 'mediafiles', '2023/07/09/8689ae3e40a2885fb310396ef265d644.jpg', '8689ae3e40a2885fb310396ef265d644', '/mediafiles/2023/07/09/8689ae3e40a2885fb310396ef265d644.jpg', NULL, '2023-07-09 23:10:48', NULL, '1', NULL, '002003', NULL, 367841);
INSERT INTO `media_files` VALUES ('87bfbd2b8ea5577a7ccda948d14198b6', 123456355, NULL, 'e069c29ec64d476ea9ed113f9445dc42.jpg', '001001', NULL, 'mediafiles', '2023/07/09/87bfbd2b8ea5577a7ccda948d14198b6.jpg', '87bfbd2b8ea5577a7ccda948d14198b6', '/mediafiles/2023/07/09/87bfbd2b8ea5577a7ccda948d14198b6.jpg', NULL, '2023-07-09 23:04:23', NULL, '1', NULL, '002003', NULL, 594741);
INSERT INTO `media_files` VALUES ('88ac474447f62cba392d34f417fae856', 12345621125, NULL, '最新动漫.avi', '001002', '视频文件', 'video', '8/8/88ac474447f62cba392d34f417fae856/88ac474447f62cba392d34f417fae856.avi', '88ac474447f62cba392d34f417fae856', '/video/8/8/88ac474447f62cba392d34f417fae856/88ac474447f62cba392d34f417fae856.avi', NULL, '2023-07-24 21:29:29', NULL, '1', NULL, '002003', NULL, 55705700);
INSERT INTO `media_files` VALUES ('88e4aabbed40ec82a7532d108a30260b', 1232141425, NULL, 'Day1-04.项目技术架构介绍.mp4', '001002', '课程视频', 'video', '8/8/88e4aabbed40ec82a7532d108a30260b/88e4aabbed40ec82a7532d108a30260b.mp4', '88e4aabbed40ec82a7532d108a30260b', '/video/8/8/88e4aabbed40ec82a7532d108a30260b/88e4aabbed40ec82a7532d108a30260b.mp4', NULL, '2023-02-12 20:06:46', NULL, '1', NULL, '002003', NULL, 69137019);
INSERT INTO `media_files` VALUES ('966b124356839ab1152b34032249f7cf', 123456355, NULL, '1.jpg', '001001', NULL, 'mediafiles', '2023/07/09/966b124356839ab1152b34032249f7cf.jpg', '966b124356839ab1152b34032249f7cf', '/mediafiles/2023/07/09/966b124356839ab1152b34032249f7cf.jpg', NULL, '2023-07-09 22:55:50', NULL, '1', NULL, '002003', NULL, 844453);
INSERT INTO `media_files` VALUES ('987c36d05123abda1514e8f0e7cc0138', 1232141425, NULL, 'Day7-01.媒资绑定-接口开发.mp4', '001002', '课程视频', 'video', '9/8/987c36d05123abda1514e8f0e7cc0138/987c36d05123abda1514e8f0e7cc0138.mp4', '987c36d05123abda1514e8f0e7cc0138', '/video/9/8/987c36d05123abda1514e8f0e7cc0138/987c36d05123abda1514e8f0e7cc0138.mp4', NULL, '2023-02-12 20:17:40', NULL, '1', NULL, '002003', NULL, 124685600);
INSERT INTO `media_files` VALUES ('a4e1a25899ba30f417ae8561f42591a0', 1232141425, NULL, 'Day8-01.课程发布-页面静态化.mp4', '001002', '课程视频', 'video', 'a/4/a4e1a25899ba30f417ae8561f42591a0/a4e1a25899ba30f417ae8561f42591a0.mp4', 'a4e1a25899ba30f417ae8561f42591a0', '/video/a/4/a4e1a25899ba30f417ae8561f42591a0/a4e1a25899ba30f417ae8561f42591a0.mp4', NULL, '2023-02-12 20:18:15', NULL, '1', NULL, '002003', NULL, 147120342);
INSERT INTO `media_files` VALUES ('a70348a565a37a3442b6ce60a577c427', 1232141425, NULL, '684f73bb4629bf4aa328eb5d51b22c690c83233a.jpg', '001001', NULL, 'mediafiles', '2023/2/12/a70348a565a37a3442b6ce60a577c427.jpg', 'a70348a565a37a3442b6ce60a577c427', '/mediafiles/2023/2/12/a70348a565a37a3442b6ce60a577c427.jpg', NULL, '2023-02-12 19:12:30', NULL, '1', NULL, '002003', NULL, 17294);
INSERT INTO `media_files` VALUES ('b755985548bee62530a97bffd881a9fa', 123456355, NULL, '127.html', '001001', NULL, 'mediafiles', 'course/127.html', 'b755985548bee62530a97bffd881a9fa', '/mediafiles/course/127.html', NULL, '2023-08-22 21:25:14', NULL, '1', NULL, '002003', NULL, 34855);
INSERT INTO `media_files` VALUES ('be58996735e21c091e0e76b324cd4236', 1232141425, NULL, '20221206101410Java-北京-苗润土.jpg', '001001', NULL, 'mediafiles', '2023/2/12/be58996735e21c091e0e76b324cd4236.jpg', 'be58996735e21c091e0e76b324cd4236', '/mediafiles/2023/2/12/be58996735e21c091e0e76b324cd4236.jpg', NULL, '2023-02-12 19:55:19', NULL, '1', NULL, '002003', NULL, 23481);
INSERT INTO `media_files` VALUES ('cdb7cb4b5e27fc11718405435da56ae1', 1232141425, NULL, 'Day11-01.支付-支付流程.mp4', '001002', '课程视频', 'video', 'c/d/cdb7cb4b5e27fc11718405435da56ae1/cdb7cb4b5e27fc11718405435da56ae1.mp4', 'cdb7cb4b5e27fc11718405435da56ae1', '/video/c/d/cdb7cb4b5e27fc11718405435da56ae1/cdb7cb4b5e27fc11718405435da56ae1.mp4', NULL, '2023-02-12 20:17:25', NULL, '1', NULL, '002003', NULL, 7783949);
INSERT INTO `media_files` VALUES ('d36b8ebb9a99bbdfb9855fb492f3afbf', 1232141425, NULL, 'Day12-01.接收支付通知-接口定义.mp4', '001002', '课程视频', 'video', 'd/3/d36b8ebb9a99bbdfb9855fb492f3afbf/d36b8ebb9a99bbdfb9855fb492f3afbf.mp4', 'd36b8ebb9a99bbdfb9855fb492f3afbf', '/video/d/3/d36b8ebb9a99bbdfb9855fb492f3afbf/d36b8ebb9a99bbdfb9855fb492f3afbf.mp4', NULL, '2023-02-12 20:18:41', NULL, '1', NULL, '002003', NULL, 62294977);
INSERT INTO `media_files` VALUES ('d8ab5d942a04d4edc03a3b62110550b2', 1232141425, NULL, 'Day1-01.项目介绍.mp4', '001002', '课程视频', 'video', 'd/8/d8ab5d942a04d4edc03a3b62110550b2/d8ab5d942a04d4edc03a3b62110550b2.mp4', 'd8ab5d942a04d4edc03a3b62110550b2', '/video/d/8/d8ab5d942a04d4edc03a3b62110550b2/d8ab5d942a04d4edc03a3b62110550b2.mp4', NULL, '2023-02-12 20:03:13', NULL, '1', NULL, '002003', NULL, 44105018);
INSERT INTO `media_files` VALUES ('dbaa8c77f6ceed7ff14885a1ea3dea39', 1232141425, NULL, 'Day1-02.面试-详细说说你的项目吧.mp4', '001002', '课程视频', 'video', 'd/b/dbaa8c77f6ceed7ff14885a1ea3dea39/dbaa8c77f6ceed7ff14885a1ea3dea39.mp4', 'dbaa8c77f6ceed7ff14885a1ea3dea39', '/video/d/b/dbaa8c77f6ceed7ff14885a1ea3dea39/dbaa8c77f6ceed7ff14885a1ea3dea39.mp4', NULL, '2023-02-12 20:03:19', NULL, '1', NULL, '002003', NULL, 35464938);
INSERT INTO `media_files` VALUES ('dd82cc59308d4afaeebb1c3bbad8c91a', 1232141425, NULL, 'Day13-01.课程查询优化需求.mp4', '001002', '课程视频', 'video', 'd/d/dd82cc59308d4afaeebb1c3bbad8c91a/dd82cc59308d4afaeebb1c3bbad8c91a.mp4', 'dd82cc59308d4afaeebb1c3bbad8c91a', '/video/d/d/dd82cc59308d4afaeebb1c3bbad8c91a/dd82cc59308d4afaeebb1c3bbad8c91a.mp4', NULL, '2023-02-12 20:18:22', NULL, '1', NULL, '002003', NULL, 10080529);
INSERT INTO `media_files` VALUES ('e00493393d836b75b5fb84813ec15f08', 1232141425, NULL, 'Day2-02.数据字典表.mp4', '001002', '课程视频', 'video', 'e/0/e00493393d836b75b5fb84813ec15f08/e00493393d836b75b5fb84813ec15f08.mp4', 'e00493393d836b75b5fb84813ec15f08', '/video/e/0/e00493393d836b75b5fb84813ec15f08/e00493393d836b75b5fb84813ec15f08.mp4', NULL, '2023-02-12 20:12:03', NULL, '1', NULL, '002003', NULL, 56492355);
INSERT INTO `media_files` VALUES ('e193d71ca57d173a47b32cd9b4d08592', 1232141425, NULL, 'Day1-00.项目导学.mp4', '001002', '课程视频', 'video', 'e/1/e193d71ca57d173a47b32cd9b4d08592/e193d71ca57d173a47b32cd9b4d08592.mp4', 'e193d71ca57d173a47b32cd9b4d08592', '/video/e/1/e193d71ca57d173a47b32cd9b4d08592/e193d71ca57d173a47b32cd9b4d08592.mp4', NULL, '2023-02-12 20:02:09', NULL, '1', NULL, '002003', NULL, 26072126);
INSERT INTO `media_files` VALUES ('e8f6582a26a4e82a867edb3286d1822e', 1232141425, NULL, 'Day9-01.网关鉴权.mp4', '001002', '课程视频', 'video', 'e/8/e8f6582a26a4e82a867edb3286d1822e/e8f6582a26a4e82a867edb3286d1822e.mp4', 'e8f6582a26a4e82a867edb3286d1822e', '/video/e/8/e8f6582a26a4e82a867edb3286d1822e/e8f6582a26a4e82a867edb3286d1822e.mp4', NULL, '2023-02-12 20:18:20', NULL, '1', NULL, '002003', NULL, 129355402);
INSERT INTO `media_files` VALUES ('ed694e924132a72e68ac00f023d083d9', 1232141425, NULL, 'Day2-03.课程查询-service.mp4', '001002', '课程视频', 'video', 'e/d/ed694e924132a72e68ac00f023d083d9/ed694e924132a72e68ac00f023d083d9.mp4', 'ed694e924132a72e68ac00f023d083d9', '/video/e/d/ed694e924132a72e68ac00f023d083d9/ed694e924132a72e68ac00f023d083d9.mp4', NULL, '2023-02-12 20:12:38', NULL, '1', NULL, '002003', NULL, 80765744);
INSERT INTO `media_files` VALUES ('efe6f7779c9d0ce1ac4c5f80cf48d1eb', 1232141425, NULL, 'Day3-01.异常处理-自定义异常类.mp4', '001002', '课程视频', 'video', 'e/f/efe6f7779c9d0ce1ac4c5f80cf48d1eb/efe6f7779c9d0ce1ac4c5f80cf48d1eb.mp4', 'efe6f7779c9d0ce1ac4c5f80cf48d1eb', '/video/e/f/efe6f7779c9d0ce1ac4c5f80cf48d1eb/efe6f7779c9d0ce1ac4c5f80cf48d1eb.mp4', NULL, '2023-02-12 20:13:19', NULL, '1', NULL, '002003', NULL, 62078746);
INSERT INTO `media_files` VALUES ('f3d90771f5b84b5bd9b750d7fddee1dc', 12345621125, NULL, '转生王女与令媛千金动漫.mp4', '001002', '视频文件', 'video', 'f/3/f3d90771f5b84b5bd9b750d7fddee1dc/f3d90771f5b84b5bd9b750d7fddee1dc.mp4', 'f3d90771f5b84b5bd9b750d7fddee1dc', '/video/f/3/f3d90771f5b84b5bd9b750d7fddee1dc/f3d90771f5b84b5bd9b750d7fddee1dc.mp4', NULL, '2023-08-15 18:09:17', NULL, '1', NULL, '002003', NULL, 159329100);
INSERT INTO `media_files` VALUES ('f6bb1fe0a9f46d7e3eab2f1d77d5f705', 1232141425, NULL, 'Day10-01.用户授权-什么的RBAC.mp4', '001002', '课程视频', 'video', 'f/6/f6bb1fe0a9f46d7e3eab2f1d77d5f705/f6bb1fe0a9f46d7e3eab2f1d77d5f705.mp4', 'f6bb1fe0a9f46d7e3eab2f1d77d5f705', '/video/f/6/f6bb1fe0a9f46d7e3eab2f1d77d5f705/f6bb1fe0a9f46d7e3eab2f1d77d5f705.mp4', NULL, '2023-02-12 20:17:15', NULL, '1', NULL, '002003', NULL, 30467147);
INSERT INTO `media_files` VALUES ('f71fbeb031e508e39dd79d44c7be7182', 12345621125, NULL, '教程.avi', '001002', '视频文件', 'video', 'f/7/f71fbeb031e508e39dd79d44c7be7182/f71fbeb031e508e39dd79d44c7be7182.avi', 'f71fbeb031e508e39dd79d44c7be7182', 'f/7/f71fbeb031e508e39dd79d44c7be7182/f71fbeb031e508e39dd79d44c7be7182.mp4', NULL, '2023-07-24 17:24:46', NULL, '1', NULL, '002003', NULL, 129715262);
COMMIT;

-- ----------------------------
-- Table structure for media_process
-- ----------------------------
DROP TABLE IF EXISTS `media_process`;
CREATE TABLE `media_process` (
  `id` bigint NOT NULL AUTO_INCREMENT,
  `file_id` varchar(120) CHARACTER SET utf8 COLLATE utf8_general_ci NOT NULL COMMENT '文件标识',
  `filename` varchar(255) CHARACTER SET utf8 COLLATE utf8_general_ci NOT NULL COMMENT '文件名称',
  `bucket` varchar(128) CHARACTER SET utf8 COLLATE utf8_general_ci NOT NULL COMMENT '存储桶',
  `file_path` varchar(512) CHARACTER SET utf8 COLLATE utf8_general_ci DEFAULT NULL COMMENT '存储路径',
  `status` varchar(12) CHARACTER SET utf8 COLLATE utf8_general_ci NOT NULL COMMENT '状态,1:未处理，2：处理成功  3处理失败 4处理中',
  `create_date` datetime NOT NULL COMMENT '上传时间',
  `finish_date` datetime DEFAULT NULL COMMENT '完成时间',
  `url` varchar(1024) CHARACTER SET utf8 COLLATE utf8_general_ci DEFAULT NULL COMMENT '媒资文件访问地址',
  `errormsg` text CHARACTER SET utf8 COLLATE utf8_general_ci COMMENT '失败原因',
  `fail_count` int DEFAULT NULL COMMENT '失败次数',
  PRIMARY KEY (`id`) USING BTREE,
  UNIQUE KEY `unique_fileid` (`file_id`) USING BTREE
) ENGINE=InnoDB AUTO_INCREMENT=12 DEFAULT CHARSET=utf8mb3 ROW_FORMAT=DYNAMIC;

-- ----------------------------
-- Records of media_process
-- ----------------------------
BEGIN;
INSERT INTO `media_process` VALUES (11, '88ac474447f62cba392d34f417fae856', '最新动漫.avi', 'video', '8/8/88ac474447f62cba392d34f417fae856/88ac474447f62cba392d34f417fae856.avi', '3', '2023-07-24 21:29:29', NULL, NULL, 'ffmpeg version N-111502-g3d79afbe70-tessus  https://evermeet.cx/ffmpeg/  Copyright (c) 2000-2023 the FFmpeg developers\n  built with Apple clang version 11.0.0 (clang-1100.0.33.17)\n  configuration: --cc=/usr/bin/clang --prefix=/opt/ffmpeg --extra-version=tessus --enable-avisynth --enable-fontconfig --enable-gpl --enable-libaom --enable-libass --enable-libbluray --enable-libdav1d --enable-libfreetype --enable-libgsm --enable-libmodplug --enable-libmp3lame --enable-libmysofa --enable-libopencore-amrnb --enable-libopencore-amrwb --enable-libopenh264 --enable-libopenjpeg --enable-libopus --enable-librubberband --enable-libshine --enable-libsnappy --enable-libsoxr --enable-libspeex --enable-libtheora --enable-libtwolame --enable-libvidstab --enable-libvmaf --enable-libvo-amrwbenc --enable-libvorbis --enable-libvpx --enable-libwebp --enable-libx264 --enable-libx265 --enable-libxavs --enable-libxvid --enable-libzimg --enable-libzmq --enable-libzvbi --enable-version3 --pkg-config-flags=--static --disable-ffplay\n  libavutil      58. 14.100 / 58. 14.100\n  libavcodec     60. 22.100 / 60. 22.100\n  libavformat    60. 10.100 / 60. 10.100\n  libavdevice    60.  2.101 / 60.  2.101\n  libavfilter     9.  8.102 /  9.  8.102\n  libswscale      7.  3.100 /  7.  3.100\n  libswresample   4. 11.100 /  4. 11.100\n  libpostproc    57.  2.100 / 57.  2.100\nInput #0, avi, from \'/var/folders/wc/_n7nx7nj5qsfch_3rdjq2sf40000gn/T/minio7647542658827625720.merge\':\n  Metadata:\n    software        : Lavf60.10.100\n  Duration: 00:07:09.98, start: 0.000000, bitrate: 1036 kb/s\n  Stream #0:0: Video: mpeg4 (Simple Profile) (FMP4 / 0x34504D46), yuv420p, 1280x720 [SAR 1:1 DAR 16:9], 895 kb/s, 25 fps, 25 tbr, 25 tbn\n  Stream #0:1: Audio: mp3 (U[0][0][0] / 0x0055), 48000 Hz, stereo, fltp, 128 kb/s\nStream mapping:\n  Stream #0:0 -> #0:0 (mpeg4 (native) -> h264 (libx264))\n  Stream #0:1 -> #0:1 (mp3 (mp3float) -> aac (native))\nPress [q] to stop, [?] for help\n[libx264 @ 0x7f9db7514280] using SAR=1/1\n[libx264 @ 0x7f9db7514280] using cpu capabilities: MMX2 SSE2Fast SSSE3 SSE4.2 AVX FMA3 BMI2 AVX2\n[libx264 @ 0x7f9db7514280] profile High, level 3.1, 4:2:0, 8-bit\n[libx264 @ 0x7f9db7514280] 264 - core 164 r3107 a8b68eb - H.264/MPEG-4 AVC codec - Copyleft 2003-2023 - http://www.videolan.org/x264.html - options: cabac=1 ref=3 deblock=1:0:0 analyse=0x3:0x113 me=hex subme=7 psy=1 psy_rd=1.00:0.00 mixed_ref=1 me_range=16 chroma_me=1 trellis=1 8x8dct=1 cqm=0 deadzone=21,11 fast_pskip=1 chroma_qp_offset=-2 threads=12 lookahead_threads=2 sliced_threads=0 nr=0 decimate=1 interlaced=0 bluray_compat=0 constrained_intra=0 bframes=3 b_pyramid=2 b_adapt=1 b_bias=0 direct=1 weightb=1 open_gop=0 weightp=2 keyint=250 keyint_min=18 scenecut=40 intra_refresh=0 rc_lookahead=40 rc=abr mbtree=1 bitrate=753 ratetol=1.0 qcomp=0.60 qpmin=0 qpmax=69 qpstep=4 ip_ratio=1.40 aq=1:1.00\nOutput #0, mp4, to \'/var/folders/wc/_n7nx7nj5qsfch_3rdjq2sf40000gn/T/minio4594128595418163266.mp4\':\n  Metadata:\n    software        : Lavf60.10.100\n    encoder         : Lavf60.10.100\n  Stream #0:0: Video: h264 (avc1 / 0x31637661), yuv420p(progressive), 1280x720 [SAR 1:1 DAR 16:9], q=2-31, 753 kb/s, 18 fps, 18432 tbn\n    Metadata:\n      encoder         : Lavc60.22.100 libx264\n    Side data:\n      cpb: bitrate max/min/avg: 0/0/753000 buffer size: 0 vbv_delay: N/A\n  Stream #0:1: Audio: aac (LC) (mp4a / 0x6134706D), 48000 Hz, stereo, fltp, 63 kb/s\n    Metadata:\n      encoder         : Lavc60.22.100 aac\nframe=    0 fps=0.0 q=0.0 size=       0kB time=00:00:00.27 bitrate=   1.4kbits/s speed=12.3x    \rframe=   42 fps=0.0 q=18.0 size=       0kB time=00:00:05.54 bitrate=   0.1kbits/s dup=0 drop=34 speed=10.6x    \rframe=  104 fps=102 q=22.0 size=     512kB time=00:00:09.00 bitrate= 465.9kbits/s dup=0 drop=58 speed=8.79x    \rframe=  158 fps=103 q=22.0 size=     768kB time=00:00:11.96 bitrate= 525.7kbits/s dup=0 drop=79 speed=7.82x    \rframe=  193 fps= 95 q=28.0 size=    1280kB time=00:00:13.95 bitrate= 751.6kbits/s dup=0 drop=93 speed=6.87x    \rframe=  221 fps= 86 q=31.0 size=    1536kB time=00:00:15.50 bitrate= 811.3kbits/s dup=0 drop=104 speed=6.02x    \rframe=  249 fps= 81 q=33.0 size=    1792kB time=00:00:17.08 bitrate= 859.1kbits/s dup=0 drop=115 speed=5.54x    \rframe=  273 fps= 76 q=36.0 size=    2048kB time=00:00:18.38 bitrate= 912.4kbits/s dup=0 drop=124 speed=5.12x    \rframe=  302 fps= 74 q=37.0 size=    2304kB time=00:00:19.98 bitrate= 944.2kbits/s dup=0 drop=135 speed=4.89x    \rframe=  340 fps= 74 q=36.0 size=    2560kB time=00:00:22.10 bitrate= 948.9kbits/s dup=0 drop=150 speed=4.79x    \rframe=  376 fps= 72 q=36.0 size=    2560kB time=00:00:24.08 bitrate= 870.7kbits/s dup=0 drop=164 speed=4.63x    \rframe=  403 fps= 71 q=36.0 size=    2816kB time=00:00:25.62 bitrate= 900.4kbits/s dup=0 drop=175 speed=4.49x    \rframe=  424 fps= 68 q=36.0 size=    2816kB time=00:00:26.81 bitrate= 860.3kbits/s dup=0 drop=183 speed=4.32x    \rframe=  440 fps= 64 q=36.0 size=    2816kB time=00:00:27.66 bitrate= 833.7kbits/s dup=0 drop=189 speed=4.02x    \rframe=  460 fps= 62 q=36.0 size=    3072kB time=00:00:28.77 bitrate= 874.5kbits/s dup=0 drop=197 speed=3.89x    \rframe=  474 fps= 60 q=37.0 size=    3072kB time=00:00:29.54 bitrate= 851.7kbits/s dup=0 drop=202 speed=3.71x    \rframe=  483 fps= 57 q=37.0 size=    3328kB time=00:00:30.08 bitrate= 906.4kbits/s dup=0 drop=206 speed=3.56x    \rframe=  509 fps= 57 q=36.0 size=    3328kB time=00:00:31.50 bitrate= 865.2kbits/s dup=0 drop=216 speed= 3.5x    \rframe=  532 fps= 56 q=36.0 size=    3328kB time=00:00:32.78 bitrate= 831.5kbits/s dup=0 drop=225 speed=3.45x    \rframe=  549 fps= 55 q=36.0 size=    3328kB time=00:00:33.68 bitrate= 809.4kbits/s dup=0 drop=231 speed=3.36x    \rframe=  567 fps= 54 q=37.0 size=    3584kB time=00:00:34.70 bitrate= 845.9kbits/s dup=0 drop=238 speed= 3.3x    \rframe=  587 fps= 53 q=37.0 size=    3840kB time=00:00:35.84 bitrate= 877.7kbits/s dup=0 drop=246 speed=3.25x    \rframe=  606 fps= 53 q=37.0 size=    3840kB time=00:00:36.90 bitrate= 852.4kbits/s dup=0 drop=254 speed= 3.2x    \rframe=  621 fps= 52 q=37.0 size=    3840kB time=00:00:37.71 bitrate= 834.0kbits/s dup=0 drop=259 speed=3.14x    \rframe=  641 fps= 50 q=37.0 size=    4096kB time=00:00:38.82 bitrate= 864.2kbits/s dup=0 drop=267 speed=3.04x    \rframe=  655 fps= 49 q=38.0 size=    4096kB time=00:00:39.61 bitrate= 847.0kbits/s dup=0 drop=273 speed=2.98x    \rframe=  681 fps= 49 q=38.0 size=    4352kB time=00:00:41.08 bitrate= 867.7kbits/s dup=0 drop=283 speed=2.98x    \rframe=  705 fps= 49 q=34.0 size=    4352kB time=00:00:42.38 bitrate= 841.1kbits/s dup=0 drop=292 speed=2.96x    \rframe=  741 fps= 50 q=37.0 size=    4608kB time=00:00:44.39 bitrate= 850.3kbits/s dup=0 drop=306 speed=2.99x    \rframe=  767 fps= 50 q=36.0 size=    4608kB time=00:00:45.82 bitrate= 823.8kbits/s dup=0 drop=316 speed=2.99x    \rframe=  790 fps= 50 q=37.0 size=    4864kB time=00:00:47.16 bitrate= 844.8kbits/s dup=0 drop=325 speed=2.98x    \rframe=  815 fps= 50 q=37.0 size=    4864kB time=00:00:48.51 bitrate= 821.4kbits/s dup=0 drop=335 speed=2.96x    \rframe=  853 fps= 51 q=37.0 size=    5120kB time=00:00:50.62 bitrate= 828.5kbits/s dup=0 drop=350 speed=   3x    \rframe=  883 fps= 51 q=37.0 size=    5376kB time=00:00:52.26 bitrate= 842.6kbits/s dup=0 drop=361 speed=3.01x    \rframe=  913 fps= 51 q=37.0 size=    5376kB time=00:00:53.95 bitrate= 816.3kbits/s dup=0 drop=373 speed=3.02x    \rframe=  955 fps= 52 q=36.0 size=    5632kB time=00:00:56.27 bitrate= 819.8kbits/s dup=0 drop=389 speed=3.06x    \rframe=  988 fps= 52 q=36.0 size=    5632kB time=00:00:58.11 bitrate= 793.9kbits/s dup=0 drop=402 speed=3.07x    \rframe= 1014 fps= 52 q=36.0 size=    5888kB time=00:00:59.56 bitrate= 809.8kbits/s dup=0 drop=412 speed=3.07x    \rframe= 1037 fps= 52 q=36.0 size=    5888kB time=00:01:00.82 bitrate= 793.1kbits/s dup=0 drop=421 speed=3.05x    \rframe= 1050 fps= 51 q=33.0 size=    6144kB time=00:01:01.52 bitrate= 818.1kbits/s dup=0 drop=426 speed=3.01x    \rframe= 1069 fps= 51 q=36.0 size=    6144kB time=00:01:02.61 bitrate= 803.9kbits/s dup=0 drop=434 speed=2.99x    \rframe= 1089 fps= 51 q=37.0 size=    6400kB time=00:01:03.70 bitrate= 823.0kbits/s dup=0 drop=441 speed=2.97x    \rframe= 1108 fps= 50 q=37.0 size=    6400kB time=00:01:04.76 bitrate= 809.5kbits/s dup=0 drop=449 speed=2.94x    \rframe= 1132 fps= 50 q=37.0 size=    6656kB time=00:01:06.09 bitrate= 825.0kbits/s dup=0 drop=458 speed=2.93x    \rframe= 1153 fps= 50 q=37.0 size=    6656kB time=00:01:07.24 bitrate= 810.9kbits/s dup=0 drop=466 speed=2.91x    \rframe= 1168 fps= 50 q=37.0 size=    6912kB time=00:01:08.11 bitrate= 831.3kbits/s dup=0 drop=472 speed=2.89x    \rframe= 1190 fps= 49 q=37.0 size=    6912kB time=00:01:09.33 bitrate= 816.7kbits/s dup=0 drop=481 speed=2.88x    \rframe= 1204 fps= 49 q=37.0 size=    6912kB time=00:01:10.10 bitrate= 807.7kbits/s dup=0 drop=486 speed=2.85x    \rframe= 1228 fps= 49 q=37.0 size=    7168kB time=00:01:11.46 bitrate= 821.7kbits/s dup=0 drop=496 speed=2.84x    \rframe= 1244 fps= 48 q=37.0 size=    7168kB time=00:01:12.34 bitrate= 811.7kbits/s dup=0 drop=502 speed=2.79x    \rframe= 1264 fps= 48 q=37.0 size=    7424kB time=00:01:13.47 bitrate= 827.8kbits/s dup=0 drop=510 speed=2.78x    \rframe= 1281 fps= 48 q=37.0 size=    7424kB time=00:01:14.38 bitrate= 817.6kbits/s dup=0 drop=516 speed=2.76x    \rframe= 1294 fps= 47 q=37.0 size=    7424kB time=00:01:15.09 bitrate= 809.9kbits/s dup=0 drop=521 speed=2.72x    \rframe= 1314 fps= 47 q=37.0 size=    7680kB time=00:01:16.22 bitrate= 825.4kbits/s dup=0 drop=529 speed=2.71x    \rframe= 1340 fps= 47 q=37.0 size=    7680kB time=00:01:17.65 bitrate= 810.2kbits/s dup=0 drop=539 speed=2.71x    \rframe= 1368 fps= 47 q=37.0 size=    7936kB time=00:01:19.23 bitrate= 820.5kbits/s dup=0 drop=550 speed=2.71x    \rframe= 1393 fps= 47 q=37.0 size=    7936kB time=00:01:20.64 bitrate= 806.2kbits/s dup=0 drop=560 speed=2.71x    \rframe= 1422 fps= 47 q=37.0 size=    8192kB time=00:01:22.21 bitrate= 816.2kbits/s dup=0 drop=571 speed=2.72x    \rframe= 1446 fps= 47 q=37.0 size=    8192kB time=00:01:23.54 bitrate= 803.3kbits/s dup=0 drop=580 speed=2.71x    \rframe= 1471 fps= 47 q=37.0 size=    8448kB time=00:01:24.92 bitrate= 814.9kbits/s dup=0 drop=590 speed=2.71x    \rframe= 1491 fps= 47 q=37.0 size=    8448kB time=00:01:26.05 bitrate= 804.2kbits/s dup=0 drop=598 speed=2.71x    \rframe= 1512 fps= 47 q=37.0 size=    8704kB time=00:01:27.21 bitrate= 817.6kbits/s dup=0 drop=606 speed=2.69x    \rframe= 1538 fps= 47 q=37.0 size=    8704kB time=00:01:28.66 bitrate= 804.2kbits/s dup=0 drop=616 speed=2.68x    \rframe= 1563 fps= 47 q=37.0 size=    8960kB time=00:01:30.06 bitrate= 814.9kbits/s dup=0 drop=626 speed=2.68x    \rframe= 1580 fps= 46 q=37.0 size=    8960kB time=00:01:30.98 bitrate= 806.7kbits/s dup=0 drop=632 speed=2.66x    \rframe= 1605 fps= 46 q=37.0 size=    9216kB time=00:01:32.39 bitrate= 817.1kbits/s dup=0 drop=642 speed=2.66x    \rframe= 1618 fps= 46 q=37.0 size=    9216kB time=00:01:33.12 bitrate= 810.8kbits/s dup=0 drop=647 speed=2.64x    \rframe= 1640 fps= 46 q=37.0 size=    9216kB time=00:01:34.33 bitrate= 800.3kbits/s dup=0 drop=656 speed=2.64x    \rframe= 1667 fps= 46 q=37.0 size=    9472kB time=00:01:35.82 bitrate= 809.7kbits/s dup=0 drop=666 speed=2.62x    \rframe= 1697 fps= 46 q=36.0 size=    9472kB time=00:01:37.51 bitrate= 795.7kbits/s dup=0 drop=678 speed=2.62x    \rframe= 1725 fps= 46 q=36.0 size=    9728kB time=00:01:39.07 bitrate= 804.4kbits/s dup=0 drop=689 speed=2.62x    \rframe= 1756 fps= 46 q=36.0 size=    9728kB time=00:01:40.77 bitrate= 790.8kbits/s dup=0 drop=701 speed=2.63x    \rframe= 1770 fps= 46 q=36.0 size=    9728kB time=00:01:41.56 bitrate= 784.6kbits/s dup=0 drop=706 speed=2.62x    \rframe= 1799 fps= 46 q=35.0 size=    9984kB time=00:01:43.16 bitrate= 792.8kbits/s dup=0 drop=718 speed=2.61x    \rframe= 1831 fps= 46 q=35.0 size=    9984kB time=00:01:44.96 bitrate= 779.2kbits/s dup=0 drop=730 speed=2.63x    \rframe= 1845 fps= 46 q=35.0 size=    9984kB time=00:01:45.68 bitrate= 773.9kbits/s dup=0 drop=735 speed=2.61x    \rframe= 1853 fps= 45 q=35.0 size=   10240kB time=00:01:46.17 bitrate= 790.1kbits/s dup=0 drop=739 speed=2.59x    \rframe= 1869 fps= 45 q=36.0 size=   10240kB time=00:01:47.07 bitrate= 783.5kbits/s dup=0 drop=745 speed=2.57x    \rframe= 1881 fps= 44 q=36.0 size=   10496kB time=00:01:47.71 bitrate= 798.3kbits/s dup=0 drop=749 speed=2.54x    \rframe= 1887 fps= 44 q=36.0 size=   10496kB time=00:01:48.07 bitrate= 795.6kbits/s dup=0 drop=752 speed=2.51x    \rframe= 1898 fps= 44 q=36.0 size=   10496kB time=00:01:48.65 bitrate= 791.4kbits/s dup=0 drop=756 speed=2.49x    \rframe= 1907 fps= 43 q=36.0 size=   10752kB time=00:01:49.18 bitrate= 806.7kbits/s dup=0 drop=760 speed=2.47x    \rframe= 1936 fps= 43 q=35.0 size=   10752kB time=00:01:50.78 bitrate= 795.1kbits/s dup=0 drop=771 speed=2.47x    \rframe= 1940 fps= 43 q=35.0 size=   10752kB time=00:01:50.99 bitrate= 793.5kbits/s dup=0 drop=772 speed=2.45x    \rframe= 1952 fps= 43 q=35.0 size=   10752kB time=00:01:51.68 bitrate= 788.7kbits/s dup=0 drop=777 speed=2.44x    \rframe= 1975 fps= 43 q=35.0 size=   10752kB time=00:01:52.93 bitrate= 779.9kbits/s dup=0 drop=786 speed=2.43x    \rframe= 1991 fps= 42 q=35.0 size=   10752kB time=00:01:53.83 bitrate= 773.8kbits/s dup=0 drop=792 speed=2.42x    \rframe= 2016 fps= 42 q=35.0 size=   11008kB time=00:01:55.22 bitrate= 782.6kbits/s dup=0 drop=802 speed=2.43x    \rframe= 2030 fps= 42 q=35.0 size=   11008kB time=00:01:55.98 bitrate= 777.5kbits/s dup=0 drop=807 speed=2.41x    \rframe= 2048 fps= 42 q=34.0 size=   11008kB time=00:01:57.05 bitrate= 770.4kbits/s dup=0 drop=815 speed= 2.4x    \rframe= 2064 fps= 42 q=34.0 size=   11264kB time=00:01:57.90 bitrate= 782.6kbits/s dup=0 drop=821 speed=2.38x    \rframe= 2077 fps= 42 q=34.0 size=   11264kB time=00:01:58.63 bitrate= 777.8kbits/s dup=0 drop=826 speed=2.37x    \rframe= 2095 fps= 41 q=34.0 size=   11264kB time=00:01:59.61 bitrate= 771.4kbits/s dup=0 drop=833 speed=2.37x    \rframe= 2105 fps= 41 q=34.0 size=   11264kB time=00:02:00.19 bitrate= 767.7kbits/s dup=0 drop=837 speed=2.35x    \rframe= 2117 fps= 41 q=34.0 size=   11264kB time=00:02:00.81 bitrate= 763.8kbits/s dup=0 drop=841 speed=2.34x    \rframe= 2126 fps= 41 q=33.0 size=   11520kB time=00:02:01.34 bitrate= 777.7kbits/s dup=0 drop=845 speed=2.32x    \rframe= 2143 fps= 41 q=33.0 size=   11520kB time=00:02:02.24 bitrate= 772.0kbits/s dup=0 drop=851 speed=2.32x    \rframe= 2152 fps= 40 q=33.0 size=   11520kB time=00:02:02.77 bitrate= 768.7kbits/s dup=0 drop=855 speed=2.31x    \rframe= 2169 fps= 40 q=33.0 size=   11520kB time=00:02:03.69 bitrate= 763.0kbits/s dup=0 drop=861 speed= 2.3x    \rframe= 2188 fps= 40 q=33.0 size=   11776kB time=00:02:04.80 bitrate= 773.0kbits/s dup=0 drop=869 speed= 2.3x    \rframe= 2195 fps= 40 q=33.0 size=   11776kB time=00:02:05.18 bitrate= 770.6kbits/s dup=0 drop=872 speed=2.28x    \rframe= 2208 fps= 40 q=33.0 size=   11776kB time=00:02:05.90 bitrate= 766.2kbits/s dup=0 drop=877 speed=2.27x    \rframe= 2216 fps= 40 q=33.0 size=   11776kB time=00:02:06.33 bitrate= 763.6kbits/s dup=0 drop=880 speed=2.26x    \rframe= 2228 fps= 39 q=33.0 size=   11776kB time=00:02:06.99 bitrate= 759.6kbits/s dup=0 drop=884 speed=2.25x    \rframe= 2242 fps= 39 q=33.0 size=   12032kB time=00:02:07.76 bitrate= 771.5kbits/s dup=0 drop=890 speed=2.24x    \rframe= 2252 fps= 39 q=33.0 size=   12032kB time=00:02:08.34 bitrate= 768.0kbits/s dup=0 drop=894 speed=2.23x    \rframe= 2265 fps= 39 q=33.0 size=   12032kB time=00:02:09.06 bitrate= 763.7kbits/s dup=0 drop=899 speed=2.23x    \rframe= 2273 fps= 39 q=33.0 size=   12032kB time=00:02:09.49 bitrate= 761.2kbits/s dup=0 drop=902 speed= 2.2x    \rframe= 2279 fps= 38 q=33.0 size=   12032kB time=00:02:09.81 bitrate= 759.3kbits/s dup=0 drop=904 speed=2.19x    \rframe= 2289 fps= 38 q=33.0 size=   12288kB time=00:02:10.38 bitrate= 772.0kbits/s dup=0 drop=908 speed=2.18x    \rframe= 2303 fps= 38 q=33.0 size=   12288kB time=00:02:11.17 bitrate= 767.4kbits/s dup=0 drop=914 speed=2.17x    \rframe= 2308 fps= 38 q=33.0 size=   12288kB time=00:02:11.47 bitrate= 765.6kbits/s dup=0 drop=916 speed=2.15x    \rframe= 2320 fps= 38 q=33.0 size=   12544kB time=00:02:12.16 bitrate= 777.5kbits/s dup=0 drop=921 speed=2.14x    \rframe= 2344 fps= 38 q=33.0 size=   12544kB time=00:02:13.46 bitrate= 770.0kbits/s dup=0 drop=930 speed=2.14x    \rframe= 2360 fps= 37 q=33.0 size=   12544kB time=00:02:14.35 bitrate= 764.8kbits/s dup=0 drop=936 speed=2.13x    \rframe= 2378 fps= 37 q=33.0 size=   12800kB time=00:02:15.33 bitrate= 774.8kbits/s dup=0 drop=943 speed=2.12x    \rframe= 2395 fps= 37 q=33.0 size=   12800kB time=00:02:16.32 bitrate= 769.2kbits/s dup=0 drop=950 speed=2.12x    \rframe= 2408 fps= 37 q=33.0 size=   12800kB time=00:02:17.04 bitrate= 765.1kbits/s dup=0 drop=954 speed=2.12x    \rframe= 2419 fps= 37 q=32.0 size=   12800kB time=00:02:17.62 bitrate= 761.9kbits/s dup=0 drop=959 speed= 2.1x    \rframe= 2431 fps= 37 q=32.0 size=   12800kB time=00:02:18.28 bitrate= 758.3kbits/s dup=0 drop=963 speed= 2.1x    \rframe= 2438 fps= 37 q=32.0 size=   12800kB time=00:02:18.66 bitrate= 756.2kbits/s dup=0 drop=966 speed=2.08x    \rframe= 2470 fps= 37 q=32.0 size=   13056kB time=00:02:20.48 bitrate= 761.4kbits/s dup=0 drop=979 speed=2.09x    \rframe= 2483 fps= 37 q=32.0 size=   13056kB time=00:02:21.18 bitrate= 757.6kbits/s dup=0 drop=984 speed=2.08x    \rframe= 2506 fps= 37 q=32.0 size=   13312kB time=00:02:22.46 bitrate= 765.5kbits/s dup=0 drop=993 speed=2.09x    \rframe= 2519 fps= 37 q=32.0 size=   13312kB time=00:02:23.18 bitrate= 761.6kbits/s dup=0 drop=998 speed=2.08x    \rframe= 2540 fps= 37 q=31.0 size=   13312kB time=00:02:24.34 bitrate= 755.5kbits/s dup=0 drop=1006 speed=2.08x    \rframe= 2555 fps= 37 q=32.0 size=   13568kB time=00:02:25.17 bitrate= 765.6kbits/s dup=0 drop=1012 speed=2.07x    \rframe= 2572 fps= 36 q=32.0 size=   13568kB time=00:02:26.11 bitrate= 760.7kbits/s dup=0 drop=1018 speed=2.07x    \rframe= 2587 fps= 36 q=32.0 size=   13568kB time=00:02:26.94 bitrate= 756.4kbits/s dup=0 drop=1024 speed=2.06x    \rframe= 2599 fps= 36 q=32.0 size=   13824kB time=00:02:27.62 bitrate= 767.1kbits/s dup=0 drop=1029 speed=2.05x    \rframe= 2610 fps= 36 q=32.0 size=   13824kB time=00:02:28.22 bitrate= 764.0kbits/s dup=0 drop=1033 speed=2.04x    \rframe= 2623 fps= 36 q=32.0 size=   13824kB time=00:02:28.94 bitrate= 760.3kbits/s dup=0 drop=1038 speed=2.03x    \rframe= 2637 fps= 36 q=32.0 size=   14080kB time=00:02:29.71 bitrate= 770.4kbits/s dup=0 drop=1043 speed=2.03x    \rframe= 2649 fps= 36 q=32.0 size=   14080kB time=00:02:30.37 bitrate= 767.0kbits/s dup=0 drop=1048 speed=2.02x    \rframe= 2669 fps= 35 q=32.0 size=   14080kB time=00:02:31.50 bitrate= 761.3kbits/s dup=0 drop=1056 speed=   2x    \rframe= 2677 fps= 35 q=32.0 size=   14080kB time=00:02:31.93 bitrate= 759.2kbits/s dup=0 drop=1059 speed=1.99x    \rframe= 2702 fps= 35 q=32.0 size=   14336kB time=00:02:33.34 bitrate= 765.9kbits/s dup=0 drop=1069 speed=1.99x    \rframe= 2729 fps= 35 q=29.0 size=   14336kB time=00:02:34.81 bitrate= 758.6kbits/s dup=0 drop=1079 speed=1.99x    \rframe= 2737 fps= 35 q=31.0 size=   14336kB time=00:02:35.26 bitrate= 756.4kbits/s dup=0 drop=1082 speed=1.98x    \rframe= 2760 fps= 35 q=31.0 size=   14592kB time=00:02:36.56 bitrate= 763.5kbits/s dup=0 drop=1091 speed=1.99x    \rframe= 2776 fps= 35 q=31.0 size=   14592kB time=00:02:37.48 bitrate= 759.1kbits/s dup=0 drop=1098 speed=1.99x    \rframe= 2802 fps= 35 q=31.0 size=   14848kB time=00:02:38.86 bitrate= 765.6kbits/s dup=0 drop=1108 speed=1.99x    \rframe= 2813 fps= 35 q=31.0 size=   14848kB time=00:02:39.50 bitrate= 762.6kbits/s dup=0 drop=1112 speed=1.98x    \rframe= 2828 fps= 35 q=31.0 size=   14848kB time=00:02:40.36 bitrate= 758.5kbits/s dup=0 drop=1118 speed=1.98x    \rframe= 2850 fps= 35 q=30.0 size=   14848kB time=00:02:41.53 bitrate= 753.0kbits/s dup=0 drop=1126 speed=1.98x    \rframe= 2863 fps= 35 q=30.0 size=   14848kB time=00:02:42.26 bitrate= 749.6kbits/s dup=0 drop=1131 speed=1.97x    \rframe= 2879 fps= 35 q=30.0 size=   15104kB time=00:02:43.17 bitrate= 758.3kbits/s dup=0 drop=1138 speed=1.97x    \rframe= 2885 fps= 35 q=30.0 size=   15104kB time=00:02:43.52 bitrate= 756.7kbits/s dup=0 drop=1140 speed=1.96x    \rframe= 2889 fps= 34 q=30.0 size=   15104kB time=00:02:43.73 bitrate= 755.7kbits/s dup=0 drop=1141 speed=1.95x    \rframe= 2894 fps= 34 q=30.0 size=   15104kB time=00:02:44.03 bitrate= 754.3kbits/s dup=0 drop=1143 speed=1.94x    \rframe= 2911 fps= 34 q=30.0 size=   15104kB time=00:02:44.94 bitrate= 750.1kbits/s dup=0 drop=1150 speed=1.94x    \rframe= 2933 fps= 34 q=29.0 size=   15104kB time=00:02:46.14 bitrate= 744.7kbits/s dup=0 drop=1159 speed=1.94x    \rframe= 2938 fps= 34 q=27.0 size=   15104kB time=00:02:46.46 bitrate= 743.3kbits/s dup=0 drop=1161 speed=1.93x    \rframe= 2942 fps= 34 q=29.0 size=   15360kB time=00:02:46.65 bitrate= 755.0kbits/s dup=0 drop=1162 speed=1.92x    \rframe= 2963 fps= 34 q=29.0 size=   15360kB time=00:02:47.82 bitrate= 749.7kbits/s dup=0 drop=1170 speed=1.92x    \rframe= 2982 fps= 34 q=29.0 size=   15360kB time=00:02:48.91 bitrate= 744.9kbits/s dup=0 drop=1178 speed=1.92x    \rframe= 3007 fps= 34 q=29.0 size=   15616kB time=00:02:50.24 bitrate= 751.4kbits/s dup=0 drop=1187 speed=1.93x    \rframe= 3020 fps= 34 q=29.0 size=   15616kB time=00:02:50.96 bitrate= 748.3kbits/s dup=0 drop=1192 speed=1.92x    \rframe= 3036 fps= 34 q=30.0 size=   15616kB time=00:02:51.90 bitrate= 744.2kbits/s dup=0 drop=1199 speed=1.92x    \rframe= 3050 fps= 34 q=30.0 size=   15872kB time=00:02:52.65 bitrate= 753.1kbits/s dup=0 drop=1204 speed=1.92x    \rframe= 3066 fps= 34 q=30.0 size=   16128kB time=00:02:53.54 bitrate= 761.3kbits/s dup=0 drop=1210 speed=1.91x    \rframe= 3084 fps= 34 q=30.0 size=   16128kB time=00:02:54.57 bitrate= 756.8kbits/s dup=0 drop=1217 speed=1.91x    \rframe= 3101 fps= 34 q=31.0 size=   16384kB time=00:02:55.50 bitrate= 764.7kbits/s dup=0 drop=1224 speed=1.91x    \rframe= 3129 fps= 34 q=31.0 size=   16384kB time=00:02:57.06 bitrate= 758.0kbits/s dup=0 drop=1235 speed=1.91x    \rframe= 3145 fps= 34 q=31.0 size=   16640kB time=00:02:57.94 bitrate= 766.1kbits/s dup=0 drop=1241 speed=1.91x    \rframe= 3165 fps= 34 q=31.0 size=   16896kB time=00:02:59.09 bitrate= 772.9kbits/s dup=0 drop=1249 speed=1.91x    \rframe= 3188 fps= 34 q=31.0 size=   16896kB time=00:03:00.33 bitrate= 767.5kbits/s dup=0 drop=1258 speed=1.92x    \rframe= 3217 fps= 34 q=31.0 size=   17152kB time=00:03:01.97 bitrate= 772.1kbits/s dup=0 drop=1269 speed=1.92x    \rframe= 3235 fps= 34 q=31.0 size=   17152kB time=00:03:02.95 bitrate= 768.0kbits/s dup=0 drop=1276 speed=1.92x    \rframe= 3258 fps= 34 q=31.0 size=   17408kB time=00:03:04.21 bitrate= 774.1kbits/s dup=0 drop=1285 speed=1.93x    \rframe= 3277 fps= 34 q=31.0 size=   17408kB time=00:03:05.25 bitrate= 769.8kbits/s dup=0 drop=1292 speed=1.93x    \rframe= 3296 fps= 34 q=31.0 size=   17664kB time=00:03:06.36 bitrate= 776.4kbits/s dup=0 drop=1300 speed=1.93x    \rframe= 3331 fps= 34 q=31.0 size=   17664kB time=00:03:08.24 bitrate= 768.7kbits/s dup=0 drop=1313 speed=1.94x    \rframe= 3357 fps= 34 q=31.0 size=   17920kB time=00:03:09.69 bitrate= 773.9kbits/s dup=0 drop=1323 speed=1.94x    \rframe= 3379 fps= 34 q=31.0 size=   17920kB time=00:03:10.93 bitrate= 768.9kbits/s dup=0 drop=1332 speed=1.95x    \rframe= 3408 fps= 35 q=31.0 size=   18176kB time=00:03:12.55 bitrate= 773.3kbits/s dup=0 drop=1343 speed=1.95x    \rframe= 3413 fps= 34 q=31.0 size=   18176kB time=00:03:12.81 bitrate= 772.3kbits/s dup=0 drop=1345 speed=1.94x    \rframe= 3430 fps= 34 q=31.0 size=   18176kB time=00:03:13.77 bitrate= 768.4kbits/s dup=0 drop=1352 speed=1.94x    \rframe= 3452 fps= 34 q=31.0 size=   18432kB time=00:03:14.96 bitrate= 774.5kbits/s dup=0 drop=1360 speed=1.94x    \rframe= 3468 fps= 34 q=31.0 size=   18432kB time=00:03:15.90 bitrate= 770.8kbits/s dup=0 drop=1367 speed=1.94x    \rframe= 3490 fps= 34 q=32.0 size=   18688kB time=00:03:17.16 bitrate= 776.5kbits/s dup=0 drop=1376 speed=1.94x    \rframe= 3509 fps= 34 q=31.0 size=   18688kB time=00:03:18.18 bitrate= 772.5kbits/s dup=0 drop=1383 speed=1.94x    \rframe= 3526 fps= 34 q=31.0 size=   18944kB time=00:03:19.10 bitrate= 779.4kbits/s dup=0 drop=1389 speed=1.94x    \rframe= 3540 fps= 34 q=32.0 size=   18944kB time=00:03:19.89 bitrate= 776.4kbits/s dup=0 drop=1395 speed=1.94x    \rframe= 3560 fps= 34 q=32.0 size=   19200kB time=00:03:20.98 bitrate= 782.6kbits/s dup=0 drop=1402 speed=1.94x    \rframe= 3576 fps= 34 q=32.0 size=   19200kB time=00:03:21.92 bitrate= 779.0kbits/s dup=0 drop=1409 speed=1.94x    \rframe= 3591 fps= 34 q=32.0 size=   19200kB time=00:03:22.73 bitrate= 775.8kbits/s dup=0 drop=1414 speed=1.94x    \rframe= 3612 fps= 34 q=32.0 size=   19456kB time=00:03:23.90 bitrate= 781.7kbits/s dup=0 drop=1423 speed=1.94x    \rframe= 3631 fps= 34 q=32.0 size=   19712kB time=00:03:24.92 bitrate= 788.0kbits/s dup=0 drop=1430 speed=1.94x    \rframe= 3653 fps= 34 q=32.0 size=   19712kB time=00:03:26.18 bitrate= 783.2kbits/s dup=0 drop=1439 speed=1.94x    \rframe= 3676 fps= 34 q=32.0 size=   19968kB time=00:03:27.44 bitrate= 788.5kbits/s dup=0 drop=1448 speed=1.94x    \rframe= 3693 fps= 34 q=32.0 size=   19968kB time=00:03:28.38 bitrate= 785.0kbits/s dup=0 drop=1454 speed=1.94x    \rframe= 3712 fps= 34 q=32.0 size=   19968kB time=00:03:29.47 bitrate= 780.9kbits/s dup=0 drop=1462 speed=1.94x    \rframe= 3726 fps= 34 q=33.0 size=   20224kB time=00:03:30.21 bitrate= 788.1kbits/s dup=0 drop=1467 speed=1.93x    \rframe= 3743 fps= 34 q=33.0 size=   20480kB time=00:03:31.17 bitrate= 794.5kbits/s dup=0 drop=1474 speed=1.93x    \rframe= 3763 fps= 34 q=33.0 size=   20480kB time=00:03:32.33 bitrate= 790.1kbits/s dup=0 drop=1482 speed=1.93x    \rframe= 3791 fps= 34 q=32.0 size=   20480kB time=00:03:33.82 bitrate= 784.6kbits/s dup=0 drop=1492 speed=1.94x    \rframe= 3806 fps= 34 q=32.0 size=   20736kB time=00:03:34.65 bitrate= 791.4kbits/s dup=0 drop=1498 speed=1.94x    \rframe= 3821 fps= 34 q=32.0 size=   20736kB time=00:03:35.48 bitrate= 788.3kbits/s dup=0 drop=1504 speed=1.94x    \rframe= 3840 fps= 34 q=32.0 size=   20736kB time=00:03:36.55 bitrate= 784.4kbits/s dup=0 drop=1511 speed=1.94x    \rframe= 3863 fps= 34 q=32.0 size=   20992kB time=00:03:37.85 bitrate= 789.4kbits/s dup=0 drop=1520 speed=1.94x    \rframe= 3886 fps= 34 q=32.0 size=   20992kB time=00:03:39.09 bitrate= 784.9kbits/s dup=0 drop=1529 speed=1.94x    \rframe= 3921 fps= 35 q=32.0 size=   21248kB time=00:03:41.05 bitrate= 787.4kbits/s dup=0 drop=1543 speed=1.95x    \rframe= 3942 fps= 35 q=31.0 size=   21248kB time=00:03:42.20 bitrate= 783.3kbits/s dup=0 drop=1551 speed=1.95x    \rframe= 3950 fps= 35 q=32.0 size=   21248kB time=00:03:42.67 bitrate= 781.7kbits/s dup=0 drop=1554 speed=1.95x    \rframe= 3966 fps= 34 q=32.0 size=   21504kB time=00:03:43.53 bitrate= 788.1kbits/s dup=0 drop=1560 speed=1.94x    \rframe= 3980 fps= 34 q=33.0 size=   21760kB time=00:03:44.34 bitrate= 794.6kbits/s dup=0 drop=1566 speed=1.94x    \rframe= 3991 fps= 34 q=33.0 size=   21760kB time=00:03:44.96 bitrate= 792.4kbits/s dup=0 drop=1570 speed=1.94x    \rframe= 4012 fps= 34 q=34.0 size=   22016kB time=00:03:46.11 bitrate= 797.6kbits/s dup=0 drop=1578 speed=1.93x    \rframe= 4045 fps= 34 q=33.0 size=   22272kB time=00:03:47.94 bitrate= 800.4kbits/s dup=0 drop=1591 speed=1.94x    \rframe= 4077 fps= 35 q=33.0 size=   22528kB time=00:03:49.69 bitrate= 803.5kbits/s dup=0 drop=1603 speed=1.95x    \rframe= 4108 fps= 35 q=33.0 size=   22528kB time=00:03:51.48 bitrate= 797.2kbits/s dup=0 drop=1616 speed=1.95x    \rframe= 4138 fps= 35 q=33.0 size=   22784kB time=00:03:53.10 bitrate= 800.7kbits/s dup=0 drop=1627 speed=1.96x    \rframe= 4159 fps= 35 q=34.0 size=   23040kB time=00:03:54.26 bitrate= 805.7kbits/s dup=0 drop=1635 speed=1.96x    \rframe= 4181 fps= 35 q=34.0 size=   23296kB time=00:03:55.52 bitrate= 810.3kbits/s dup=0 drop=1644 speed=1.96x    \rframe= 4211 fps= 35 q=34.0 size=   23296kB time=00:03:57.18 bitrate= 804.6kbits/s dup=0 drop=1656 speed=1.97x    \rframe= 4225 fps= 35 q=35.0 size=   23552kB time=00:03:57.93 bitrate= 810.9kbits/s dup=0 drop=1661 speed=1.96x    \rframe= 4249 fps= 35 q=35.0 size=   23808kB time=00:03:59.25 bitrate= 815.2kbits/s dup=0 drop=1670 speed=1.96x    \rframe= 4272 fps= 35 q=35.0 size=   24064kB time=00:04:00.55 bitrate= 819.5kbits/s dup=0 drop=1679 speed=1.97x    \rframe= 4286 fps= 35 q=36.0 size=   24320kB time=00:04:01.34 bitrate= 825.5kbits/s dup=0 drop=1685 speed=1.97x    \rframe= 4305 fps= 35 q=36.0 size=   24320kB time=00:04:02.45 bitrate= 821.7kbits/s dup=0 drop=1693 speed=1.97x    \rframe= 4341 fps= 35 q=35.0 size=   24576kB time=00:04:04.39 bitrate= 823.8kbits/s dup=0 drop=1706 speed=1.97x    \rframe= 4380 fps= 35 q=35.0 size=   24576kB time=00:04:06.54 bitrate= 816.6kbits/s dup=0 drop=1721 speed=1.98x    \rframe= 4419 fps= 35 q=35.0 size=   24832kB time=00:04:08.70 bitrate= 817.9kbits/s dup=0 drop=1736 speed=1.99x    \rframe= 4452 fps= 36 q=34.0 size=   24832kB time=00:04:10.53 bitrate= 811.9kbits/s dup=0 drop=1749 speed=   2x    \rframe= 4490 fps= 36 q=34.0 size=   25088kB time=00:04:12.67 bitrate= 813.4kbits/s dup=0 drop=1764 speed=2.01x    \rframe= 4519 fps= 36 q=34.0 size=   25088kB time=00:04:14.33 bitrate= 808.1kbits/s dup=0 drop=1776 speed=2.01x    \rframe= 4556 fps= 36 q=34.0 size=   25344kB time=00:04:16.36 bitrate= 809.9kbits/s dup=0 drop=1790 speed=2.02x    \rframe= 4594 fps= 36 q=34.0 size=   25344kB time=00:04:18.45 bitrate= 803.3kbits/s dup=0 drop=1805 speed=2.03x    \rframe= 4628 fps= 36 q=34.0 size=   25600kB time=00:04:20.35 bitrate= 805.5kbits/s dup=0 drop=1818 speed=2.04x    \rframe= 4658 fps= 36 q=34.0 size=   25600kB time=00:04:21.97 bitrate= 800.5kbits/s dup=0 drop=1829 speed=2.04x    \rframe= 4676 fps= 36 q=34.0 size=   25856kB time=00:04:22.99 bitrate= 805.4kbits/s dup=0 drop=1836 speed=2.04x    \rframe= 4701 fps= 36 q=33.0 size=   25856kB time=00:04:24.38 bitrate= 801.2kbits/s dup=0 drop=1846 speed=2.04x    \rframe= 4715 fps= 36 q=34.0 size=   26112kB time=00:04:25.17 bitrate= 806.7kbits/s dup=0 drop=1852 speed=2.04x    \rframe= 4735 fps= 36 q=34.0 size=   26368kB time=00:04:26.28 bitrate= 811.2kbits/s dup=0 drop=1859 speed=2.04x    \rframe= 4756 fps= 36 q=34.0 size=   26368kB time=00:04:27.45 bitrate= 807.6kbits/s dup=0 drop=1868 speed=2.04x    \rframe= 4775 fps= 36 q=34.0 size=   26624kB time=00:04:28.50 bitrate= 812.3kbits/s dup=0 drop=1875 speed=2.04x    \rframe= 4789 fps= 36 q=34.0 size=   26624kB time=00:04:29.24 bitrate= 810.0kbits/s dup=0 drop=1880 speed=2.04x    \rframe= 4813 fps= 36 q=34.0 size=   26880kB time=00:04:30.65 bitrate= 813.6kbits/s dup=0 drop=1890 speed=2.04x    \rframe= 4843 fps= 36 q=34.0 size=   26880kB time=00:04:32.27 bitrate= 808.7kbits/s dup=0 drop=1901 speed=2.05x    \rframe= 4861 fps= 36 q=35.0 size=   27136kB time=00:04:33.25 bitrate= 813.5kbits/s dup=0 drop=1908 speed=2.04x    \rframe= 4895 fps= 36 q=34.0 size=   27392kB time=00:04:35.17 bitrate= 815.5kbits/s dup=0 drop=1922 speed=2.05x    \rframe= 4921 fps= 36 q=34.0 size=   27392kB time=00:04:36.62 bitrate= 811.2kbits/s dup=0 drop=1932 speed=2.05x    \rframe= 4962 fps= 37 q=34.0 size=   27648kB time=00:04:38.93 bitrate= 812.0kbits/s dup=0 drop=1948 speed=2.06x    \rframe= 4993 fps= 37 q=34.0 size=   27648kB time=00:04:40.64 bitrate= 807.1kbits/s dup=0 drop=1960 speed=2.07x    \rframe= 5036 fps= 37 q=33.0 size=   27648kB time=00:04:43.00 bitrate= 800.3kbits/s dup=0 drop=1976 speed=2.07x    \rframe= 5063 fps= 37 q=33.0 size=   27904kB time=00:04:44.50 bitrate= 803.5kbits/s dup=0 drop=1987 speed=2.08x    \rframe= 5096 fps= 37 q=33.0 size=   27904kB time=00:04:46.33 bitrate= 798.3kbits/s dup=0 drop=2000 speed=2.08x    \rframe= 5127 fps= 37 q=33.0 size=   28160kB time=00:04:48.06 bitrate= 800.8kbits/s dup=0 drop=2012 speed=2.09x    \rframe= 5151 fps= 37 q=33.0 size=   28160kB time=00:04:49.38 bitrate= 797.2kbits/s dup=0 drop=2021 speed=2.09x    \rframe= 5179 fps= 37 q=33.0 size=   28416kB time=00:04:50.94 bitrate= 800.1kbits/s dup=0 drop=2032 speed=2.09x    \rframe= 5195 fps= 37 q=33.0 size=   28416kB time=00:04:51.84 bitrate= 797.6kbits/s dup=0 drop=2038 speed=2.09x    \rframe= 5216 fps= 37 q=33.0 size=   28672kB time=00:04:52.99 bitrate= 801.7kbits/s dup=0 drop=2046 speed=2.09x    \rframe= 5231 fps= 37 q=33.0 size=   28672kB time=00:04:53.82 bitrate= 799.4kbits/s dup=0 drop=2052 speed=2.09x    \rframe= 5259 fps= 37 q=34.0 size=   28928kB time=00:04:55.38 bitrate= 802.3kbits/s dup=0 drop=2063 speed=2.09x    \rframe= 5289 fps= 37 q=34.0 size=   29184kB time=00:04:57.06 bitrate= 804.8kbits/s dup=0 drop=2075 speed= 2.1x    \rframe= 5316 fps= 37 q=34.0 size=   29440kB time=00:04:58.60 bitrate= 807.7kbits/s dup=0 drop=2085 speed= 2.1x    \rframe= 5344 fps= 37 q=34.0 size=   29440kB time=00:05:00.09 bitrate= 803.7kbits/s dup=0 drop=2096 speed= 2.1x    \rframe= 5369 fps= 37 q=34.0 size=   29696kB time=00:05:01.48 bitrate= 806.9kbits/s dup=0 drop=2106 speed=2.11x    \rframe= 5383 fps= 37 q=34.0 size=   29952kB time=00:05:02.25 bitrate= 811.8kbits/s dup=0 drop=2111 speed= 2.1x    \rframe= 5401 fps= 37 q=34.0 size=   30208kB time=00:05:03.29 bitrate= 815.9kbits/s dup=0 drop=2118 speed= 2.1x    \rframe= 5421 fps= 37 q=35.0 size=   30208kB time=00:05:04.44 bitrate= 812.8kbits/s dup=0 drop=2126 speed= 2.1x    \rframe= 5441 fps= 37 q=35.0 size=   30464kB time=00:05:05.49 bitrate= 816.9kbits/s dup=0 drop=2134 speed= 2.1x    \rframe= 5463 fps= 37 q=35.0 size=   30720kB time=00:05:06.68 bitrate= 820.6kbits/s dup=0 drop=2142 speed= 2.1x    \rframe= 5489 fps= 37 q=36.0 size=   30976kB time=00:05:08.18 bitrate= 823.4kbits/s dup=0 drop=2153 speed=2.11x    \rframe= 5541 fps= 38 q=35.0 size=   31232kB time=00:05:11.06 bitrate= 822.5kbits/s dup=0 drop=2173 speed=2.12x    \rframe= 5577 fps= 38 q=35.0 size=   31232kB time=00:05:13.04 bitrate= 817.3kbits/s dup=0 drop=2187 speed=2.12x    \rframe= 5608 fps= 38 q=35.0 size=   31488kB time=00:05:14.81 bitrate= 819.4kbits/s dup=0 drop=2199 speed=2.13x    \rframe= 5641 fps= 38 q=35.0 size=   31488kB time=00:05:16.62 bitrate= 814.7kbits/s dup=0 drop=2212 speed=2.13x    \rframe= 5668 fps= 38 q=35.0 size=   31744kB time=00:05:18.12 bitrate= 817.4kbits/s dup=0 drop=2222 speed=2.13x    \rframe= 5691 fps= 38 q=35.0 size=   31744kB time=00:05:19.38 bitrate= 814.2kbits/s dup=0 drop=2231 speed=2.13x    \rframe= 5730 fps= 38 q=34.0 size=   32000kB time=00:05:21.55 bitrate= 815.2kbits/s dup=0 drop=2246 speed=2.14x    \rframe= 5761 fps= 38 q=35.0 size=   32256kB time=00:05:23.28 bitrate= 817.4kbits/s dup=0 drop=2258 speed=2.15x    \rframe= 5794 fps= 38 q=34.0 size=   32256kB time=00:05:25.09 bitrate= 812.8kbits/s dup=0 drop=2271 speed=2.15x    \rframe= 5830 fps= 38 q=34.0 size=   32512kB time=00:05:27.10 bitrate= 814.2kbits/s dup=0 drop=2285 speed=2.16x    \rframe= 5863 fps= 39 q=34.0 size=   32512kB time=00:05:28.93 bitrate= 809.7kbits/s dup=0 drop=2298 speed=2.16x    \rframe= 5885 fps= 39 q=34.0 size=   32512kB time=00:05:30.19 bitrate= 806.6kbits/s dup=0 drop=2307 speed=2.16x    \rframe= 5905 fps= 39 q=34.0 size=   32768kB time=00:05:31.26 bitrate= 810.3kbits/s dup=0 drop=2314 speed=2.16x    \rframe= 5940 fps= 39 q=34.0 size=   33024kB time=00:05:33.20 bitrate= 811.9kbits/s dup=0 drop=2328 speed=2.17x    \rframe= 5969 fps= 39 q=34.0 size=   33024kB time=00:05:34.82 bitrate= 808.0kbits/s dup=0 drop=2339 speed=2.17x    \rframe= 5998 fps= 39 q=34.0 size=   33280kB time=00:05:36.46 bitrate= 810.3kbits/s dup=0 drop=2351 speed=2.17x    \rframe= 6024 fps= 39 q=34.0 size=   33280kB time=00:05:37.89 bitrate= 806.8kbits/s dup=0 drop=2361 speed=2.17x    \rframe= 6043 fps= 39 q=34.0 size=   33536kB time=00:05:38.94 bitrate= 810.5kbits/s dup=0 drop=2368 speed=2.17x    \rframe= 6064 fps= 39 q=34.0 size=   33536kB time=00:05:40.09 bitrate= 807.8kbits/s dup=0 drop=2376 speed=2.17x    \rframe= 6091 fps= 39 q=34.0 size=   33792kB time=00:05:41.61 bitrate= 810.4kbits/s dup=0 drop=2387 speed=2.18x    \rframe= 6111 fps= 39 q=34.0 size=   33792kB time=00:05:42.76 bitrate= 807.6kbits/s dup=0 drop=2394 speed=2.18x    \rframe= 6142 fps= 39 q=34.0 size=   34048kB time=00:05:44.46 bitrate= 809.7kbits/s dup=0 drop=2407 speed=2.18x    \rframe= 6157 fps= 39 q=34.0 size=   34304kB time=00:05:45.30 bitrate= 813.8kbits/s dup=0 drop=2413 speed=2.18x    \rframe= 6183 fps= 39 q=34.0 size=   34560kB time=00:05:46.70 bitrate= 816.6kbits/s dup=0 drop=2422 speed=2.18x    \rframe= 6206 fps= 39 q=34.0 size=   34560kB time=00:05:47.96 bitrate= 813.6kbits/s dup=0 drop=2431 speed=2.18x    \rframe= 6223 fps= 39 q=35.0 size=   34816kB time=00:05:48.92 bitrate= 817.4kbits/s dup=0 drop=2438 speed=2.18x    \rframe= 6243 fps= 39 q=35.0 size=   34816kB time=00:05:50.05 bitrate= 814.8kbits/s dup=0 drop=2446 speed=2.18x    \rframe= 6255 fps= 39 q=35.0 size=   35072kB time=00:05:50.72 bitrate= 819.2kbits/s dup=0 drop=2450 speed=2.17x    \rframe= 6272 fps= 39 q=32.0 size=   35072kB time=00:05:51.68 bitrate= 817.0kbits/s dup=0 drop=2457 speed=2.17x    \rframe= 6288 fps= 39 q=35.0 size=   35328kB time=00:05:52.55 bitrate= 820.9kbits/s dup=0 drop=2463 speed=2.17x    \rframe= 6310 fps= 39 q=35.0 size=   35328kB time=00:05:53.79 bitrate= 818.0kbits/s dup=0 drop=2472 speed=2.17x    \rframe= 6335 fps= 39 q=35.0 size=   35584kB time=00:05:55.17 bitrate= 820.7kbits/s dup=0 drop=2482 speed=2.17x    \rframe= 6360 fps= 39 q=35.0 size=   35840kB time=00:05:56.54 bitrate= 823.5kbits/s dup=0 drop=2491 speed=2.18x    \rframe= 6390 fps= 39 q=35.0 size=   35840kB time=00:05:58.22 bitrate= 819.6kbits/s dup=0 drop=2503 speed=2.18x    \rframe= 6419 fps= 39 q=35.0 size=   36096kB time=00:05:59.82 bitrate= 821.8kbits/s dup=0 drop=2514 speed=2.18x    \rframe= 6440 fps= 39 q=35.0 size=   36096kB time=00:06:00.98 bitrate= 819.2kbits/s dup=0 drop=2522 speed=2.18x    \rframe= 6470 fps= 39 q=35.0 size=   36352kB time=00:06:02.66 bitrate= 821.1kbits/s dup=0 drop=2534 speed=2.18x    \rframe= 6496 fps= 39 q=35.0 size=   36608kB time=00:06:04.11 bitrate= 823.6kbits/s dup=0 drop=2544 speed=2.19x    \rframe= 6514 fps= 39 q=35.0 size=   36608kB time=00:06:05.12 bitrate= 821.4kbits/s dup=0 drop=2551 speed=2.19x    \rframe= 6533 fps= 39 q=36.0 size=   36864kB time=00:06:06.18 bitrate= 824.7kbits/s dup=0 drop=2559 speed=2.18x    \rframe= 6553 fps= 39 q=36.0 size=   37120kB time=00:06:07.27 bitrate= 828.0kbits/s dup=0 drop=2566 speed=2.18x    \rframe= 6577 fps= 39 q=36.0 size=   37120kB time=00:06:08.61 bitrate= 824.9kbits/s dup=0 drop=2576 speed=2.19x    \rframe= 6613 fps= 39 q=36.0 size=   37376kB time=00:06:10.62 bitrate= 826.1kbits/s dup=0 drop=2590 speed=2.19x    \rframe= 6647 fps= 39 q=36.0 size=   37376kB time=00:06:12.50 bitrate= 822.0kbits/s dup=0 drop=2603 speed=2.19x    \rframe= 6675 fps= 39 q=36.0 size=   37632kB time=00:06:14.05 bitrate= 824.2kbits/s dup=0 drop=2614 speed=2.19x    \rframe= 6705 fps= 39 q=36.0 size=   37888kB time=00:06:15.70 bitrate= 826.1kbits/s dup=0 drop=2625 speed= 2.2x    \rframe= 6732 fps= 39 q=36.0 size=   37888kB time=00:06:17.23 bitrate= 822.8kbits/s dup=0 drop=2636 speed= 2.2x    \rframe= 6754 fps= 39 q=35.0 size=   37888kB time=00:06:18.45 bitrate= 820.1kbits/s dup=0 drop=2645 speed= 2.2x    \rframe= 6783 fps= 39 q=35.0 size=   38144kB time=00:06:20.05 bitrate= 822.2kbits/s dup=0 drop=2656 speed= 2.2x    \rframe= 6810 fps= 39 q=35.0 size=   38400kB time=00:06:21.54 bitrate= 824.5kbits/s dup=0 drop=2666 speed= 2.2x    \rframe= 6830 fps= 39 q=35.0 size=   38400kB time=00:06:22.65 bitrate= 822.1kbits/s dup=0 drop=2674 speed= 2.2x    \rframe= 6851 fps= 39 q=36.0 size=   38656kB time=00:06:23.87 bitrate= 824.9kbits/s dup=0 drop=2682 speed= 2.2x    \rframe= 6877 fps= 39 q=35.0 size=   38656kB time=00:06:25.32 bitrate= 821.8kbits/s dup=0 drop=2692 speed=2.21x    \rframe= 6897 fps= 39 q=35.0 size=   38912kB time=00:06:26.36 bitrate= 825.0kbits/s dup=0 drop=2700 speed= 2.2x    \rframe= 6923 fps= 39 q=35.0 size=   38912kB time=00:06:27.79 bitrate= 822.0kbits/s dup=0 drop=2710 speed=2.21x    \rframe= 6947 fps= 39 q=35.0 size=   38912kB time=00:06:29.18 bitrate= 819.1kbits/s dup=0 drop=2720 speed=2.21x    \rframe= 6967 fps= 39 q=35.0 size=   39168kB time=00:06:30.27 bitrate= 822.2kbits/s dup=0 drop=2727 speed=2.21x    \rframe= 6983 fps= 39 q=35.0 size=   39168kB time=00:06:31.18 bitrate= 820.2kbits/s dup=0 drop=2734 speed=2.21x    \rframe= 6998 fps= 39 q=36.0 size=   39424kB time=00:06:32.00 bitrate= 823.9kbits/s dup=0 drop=2739 speed= 2.2x    \rframe= 7014 fps= 39 q=36.0 size=   39424kB time=00:06:32.89 bitrate= 822.0kbits/s dup=0 drop=2746 speed= 2.2x    \rframe= 7031 fps= 39 q=36.0 size=   39680kB time=00:06:33.83 bitrate= 825.4kbits/s dup=0 drop=2752 speed= 2.2x    \rframe= 7057 fps= 39 q=36.0 size=   39936kB time=00:06:35.26 bitrate= 827.7kbits/s dup=0 drop=2762 speed= 2.2x    \rframe= 7095 fps= 39 q=36.0 size=   39936kB time=00:06:37.44 bitrate= 823.2kbits/s dup=0 drop=2778 speed=2.21x    \rframe= 7114 fps= 39 q=36.0 size=   40192kB time=00:06:38.46 bitrate= 826.3kbits/s dup=0 drop=2785 speed=2.21x    \rframe= 7137 fps= 39 q=36.0 size=   40192kB time=00:06:39.70 bitrate= 823.7kbits/s dup=0 drop=2793 speed=2.21x    \rframe= 7152 fps= 39 q=36.0 size=   40448kB time=00:06:40.53 bitrate= 827.3kbits/s dup=0 drop=2799 speed= 2.2x    \rframe= 7173 fps= 39 q=36.0 size=   40448kB time=00:06:41.70 bitrate= 824.9kbits/s dup=0 drop=2807 speed= 2.2x    \rframe= 7192 fps= 39 q=36.0 size=   40704kB time=00:06:42.79 bitrate= 827.8kbits/s dup=0 drop=2815 speed= 2.2x    \rframe= 7211 fps= 39 q=36.0 size=   40960kB time=00:06:43.81 bitrate= 830.9kbits/s dup=0 drop=2822 speed= 2.2x    \rframe= 7233 fps= 39 q=37.0 size=   41216kB time=00:06:45.07 bitrate= 833.5kbits/s dup=0 drop=2831 speed= 2.2x    \rframe= 7245 fps= 39 q=37.0 size=   41216kB time=00:06:45.69 bitrate= 832.3kbits/s dup=0 drop=2835 speed= 2.2x    \rframe= 7286 fps= 39 q=36.0 size=   41216kB time=00:06:47.97 bitrate= 827.6kbits/s dup=0 drop=2851 speed=2.21x    \rframe= 7322 fps= 39 q=36.0 size=   41472kB time=00:06:49.98 bitrate= 828.7kbits/s dup=0 drop=2865 speed=2.21x    \rframe= 7356 fps= 40 q=36.0 size=   41728kB time=00:06:51.90 bitrate= 829.9kbits/s dup=0 drop=2879 speed=2.21x    \rframe= 7381 fps= 40 q=36.0 size=   41728kB time=00:06:53.24 bitrate= 827.2kbits/s dup=0 drop=2888 speed=2.22x    \rframe= 7405 fps= 40 q=36.0 size=   41984kB time=00:06:54.65 bitrate= 829.4kbits/s dup=0 drop=2898 speed=2.22x    \rframe= 7426 fps= 40 q=36.0 size=   41984kB time=00:06:55.80 bitrate= 827.1kbits/s dup=0 drop=2906 speed=2.22x    \rframe= 7439 fps= 40 q=36.0 size=   42240kB time=00:06:56.49 bitrate= 830.8kbits/s dup=0 drop=2911 speed=2.21x    \rframe= 7459 fps= 40 q=36.0 size=   42240kB time=00:06:57.62 bitrate= 828.6kbits/s dup=0 drop=2919 speed=2.21x    \rframe= 7476 fps= 40 q=36.0 size=   42496kB time=00:06:58.53 bitrate= 831.8kbits/s dup=0 drop=2925 speed=2.21x    \rframe= 7494 fps= 40 q=37.0 size=   42496kB time=00:06:59.54 bitrate= 829.8kbits/s dup=0 drop=2932 speed=2.21x    \rframe= 7528 fps= 40 q=37.0 size=   42752kB time=00:07:01.48 bitrate= 830.9kbits/s dup=0 drop=2946 speed=2.22x    \rframe= 7561 fps= 40 q=36.0 size=   42752kB time=00:07:03.29 bitrate= 827.4kbits/s dup=0 drop=2958 speed=2.22x    \rframe= 7592 fps= 40 q=36.0 size=   43008kB time=00:07:04.98 bitrate= 829.0kbits/s dup=0 drop=2970 speed=2.22x    \rframe= 7615 fps= 40 q=36.0 size=   43008kB time=00:07:06.26 bitrate= 826.5kbits/s dup=0 drop=2979 speed=2.22x    \rframe= 7633 fps= 40 q=36.0 size=   43008kB time=00:07:07.26 bitrate= 824.6kbits/s dup=0 drop=2986 speed=2.22x    \rframe= 7651 fps= 40 q=33.0 size=   43264kB time=00:07:08.24 bitrate= 827.6kbits/s dup=0 drop=2993 speed=2.22x    \rframe= 7677 fps= 40 q=36.0 size=   43264kB time=00:07:09.76 bitrate= 824.7kbits/s dup=0 drop=3004 speed=2.22x    \r[out#0/mp4 @ 0x7f9db7513000] video:40426kB audio:3348kB subtitle:0kB other streams:0kB global headers:0kB muxing overhead: 0.641246%\nframe= 7741 fps= 40 q=-1.0 Lsize=   44055kB time=00:07:09.97 bitrate= 839.3kbits/s dup=0 drop=3007 speed=2.21x    \n[libx264 @ 0x7f9db7514280] frame I:172   Avg QP:21.33  size: 23807\n[libx264 @ 0x7f9db7514280] frame P:4854  Avg QP:24.88  size:  6641\n[libx264 @ 0x7f9db7514280] frame B:2715  Avg QP:23.89  size:  1865\n[libx264 @ 0x7f9db7514280] consecutive B-frames: 45.2% 20.9%  9.2% 24.6%\n[libx264 @ 0x7f9db7514280] mb I  I16..4: 50.3% 47.3%  2.4%\n[libx264 @ 0x7f9db7514280] mb P  I16..4: 11.6% 15.1%  0.4%  P16..4: 16.3%  2.5%  1.0%  0.0%  0.0%    skip:53.2%\n[libx264 @ 0x7f9db7514280] mb B  I16..4:  2.8%  2.7%  0.0%  B16..8: 17.4%  1.2%  0.1%  direct: 1.1%  skip:74.7%  L0:66.2% L1:32.5% BI: 1.3%\n[libx264 @ 0x7f9db7514280] final ratefactor: 29.91\n[libx264 @ 0x7f9db7514280] 8x8 transform intra:54.3% inter:89.9%\n[libx264 @ 0x7f9db7514280] coded y,uvDC,uvAC intra: 18.7% 39.2% 3.4% inter: 2.5% 3.4% 0.3%\n[libx264 @ 0x7f9db7514280] i16 v,h,dc,p: 53% 34% 13%  1%\n[libx264 @ 0x7f9db7514280] i8 v,h,dc,ddl,ddr,vr,hd,vl,hu: 22% 16% 52%  4%  1%  1%  1%  1%  4%\n[libx264 @ 0x7f9db7514280] i4 v,h,dc,ddl,ddr,vr,hd,vl,hu: 53% 24% 12%  2%  2%  2%  2%  2%  1%\n[libx264 @ 0x7f9db7514280] i8c dc,h,v,p: 49% 25% 24%  1%\n[libx264 @ 0x7f9db7514280] Weighted P-Frames: Y:2.4% UV:1.8%\n[libx264 @ 0x7f9db7514280] ref P L0: 70.0%  9.1% 14.4%  6.4%  0.1%\n[libx264 @ 0x7f9db7514280] ref B L0: 67.8% 28.0%  4.2%\n[libx264 @ 0x7f9db7514280] ref B L1: 92.3%  7.7%\n[libx264 @ 0x7f9db7514280] kb/s:770.05\n[aac @ 0x7f9db7519cc0] Qavg: 512.462\n', 3);
COMMIT;

-- ----------------------------
-- Table structure for media_process_history
-- ----------------------------
DROP TABLE IF EXISTS `media_process_history`;
CREATE TABLE `media_process_history` (
  `id` bigint NOT NULL,
  `file_id` varchar(120) CHARACTER SET utf8 COLLATE utf8_general_ci NOT NULL COMMENT '文件标识',
  `filename` varchar(255) CHARACTER SET utf8 COLLATE utf8_general_ci NOT NULL COMMENT '文件名称',
  `bucket` varchar(128) CHARACTER SET utf8 COLLATE utf8_general_ci NOT NULL COMMENT '存储源',
  `status` varchar(12) CHARACTER SET utf8 COLLATE utf8_general_ci NOT NULL COMMENT '状态,1:未处理，2：处理成功  3处理失败',
  `create_date` datetime NOT NULL COMMENT '上传时间',
  `finish_date` datetime NOT NULL COMMENT '完成时间',
  `url` varchar(1024) CHARACTER SET utf8 COLLATE utf8_general_ci NOT NULL COMMENT '媒资文件访问地址',
  `file_path` varchar(512) CHARACTER SET utf8 COLLATE utf8_general_ci DEFAULT NULL COMMENT '文件路径',
  `errormsg` varchar(1024) CHARACTER SET utf8 COLLATE utf8_general_ci DEFAULT NULL COMMENT '失败原因',
  `fail_count` int DEFAULT NULL COMMENT '失败次数',
  PRIMARY KEY (`id`) USING BTREE
) ENGINE=InnoDB DEFAULT CHARSET=utf8mb3 ROW_FORMAT=DYNAMIC;

-- ----------------------------
-- Records of media_process_history
-- ----------------------------
BEGIN;
INSERT INTO `media_process_history` VALUES (1, '1f229319d6fed3431d2f9d06193a433b', '01-分布式事务专题课程介绍.avi', 'video', '2', '2022-09-14 18:30:02', '2022-09-14 20:32:12', 'video1/f/1f229319d6fed3431d2f9d06193a433b/1f229319d6fed3431d2f9d06193a433b.mp4', '1/f/1f229319d6fed3431d2f9d06193a433b/1f229319d6fed3431d2f9d06193a433b.avi', NULL, NULL);
INSERT INTO `media_process_history` VALUES (2, '23f83ae728bd1269eee7ea2236e79644', '16-Nacos配置管理-课程总结.avi', 'video', '2', '2022-09-14 18:21:44', '2022-09-14 20:32:20', 'video2/3/23f83ae728bd1269eee7ea2236e79644/23f83ae728bd1269eee7ea2236e79644.mp4', '2/3/23f83ae728bd1269eee7ea2236e79644/23f83ae728bd1269eee7ea2236e79644.avi', NULL, NULL);
INSERT INTO `media_process_history` VALUES (3, '3a5a861d1c745d05166132c47b44f9e4', '01-Nacos配置管理-内容介绍.avi', 'video', '2', '2022-09-14 18:19:24', '2022-09-14 20:33:27', 'video3/a/3a5a861d1c745d05166132c47b44f9e4/3a5a861d1c745d05166132c47b44f9e4.mp4', '3/a/3a5a861d1c745d05166132c47b44f9e4/3a5a861d1c745d05166132c47b44f9e4.avi', NULL, NULL);
INSERT INTO `media_process_history` VALUES (4, '6ad24a762f67c18f61966c1b8c55abe6', '07-分布式事务基础理论-BASE理论.avi', 'video', '2', '2022-09-14 18:30:16', '2022-09-14 20:33:46', 'video6/a/6ad24a762f67c18f61966c1b8c55abe6/6ad24a762f67c18f61966c1b8c55abe6.mp4', '6/a/6ad24a762f67c18f61966c1b8c55abe6/6ad24a762f67c18f61966c1b8c55abe6.avi', NULL, NULL);
INSERT INTO `media_process_history` VALUES (5, '70a98b4a2fffc89e50b101f959cc33ca', '22-Hmily实现TCC事务-开发bank2的confirm方法.avi', 'video', '2', '2022-09-14 18:30:52', '2022-09-14 20:34:33', 'video7/0/70a98b4a2fffc89e50b101f959cc33ca/70a98b4a2fffc89e50b101f959cc33ca.mp4', '7/0/70a98b4a2fffc89e50b101f959cc33ca/70a98b4a2fffc89e50b101f959cc33ca.avi', NULL, NULL);
INSERT INTO `media_process_history` VALUES (10, 'f71fbeb031e508e39dd79d44c7be7182', '教程.avi', 'video', '2', '2023-07-24 17:24:46', '2023-07-24 17:29:13', 'f/7/f71fbeb031e508e39dd79d44c7be7182/f71fbeb031e508e39dd79d44c7be7182.mp4', 'f/7/f71fbeb031e508e39dd79d44c7be7182/f71fbeb031e508e39dd79d44c7be7182.avi', NULL, 0);
COMMIT;

-- ----------------------------
-- Table structure for mq_message
-- ----------------------------
DROP TABLE IF EXISTS `mq_message`;
CREATE TABLE `mq_message` (
  `id` varchar(64) CHARACTER SET utf8 COLLATE utf8_general_ci NOT NULL COMMENT '消息id',
  `message_type` varchar(32) CHARACTER SET utf8 COLLATE utf8_general_ci NOT NULL COMMENT '消息类型代码',
  `business_key1` varchar(64) CHARACTER SET utf8 COLLATE utf8_general_ci DEFAULT NULL COMMENT '关联业务信息',
  `business_key2` varchar(255) CHARACTER SET utf8 COLLATE utf8_general_ci DEFAULT NULL COMMENT '关联业务信息',
  `business_key3` varchar(512) CHARACTER SET utf8 COLLATE utf8_general_ci DEFAULT NULL COMMENT '关联业务信息',
  `mq_host` varchar(32) CHARACTER SET utf8 COLLATE utf8_general_ci NOT NULL COMMENT '消息队列主机',
  `mq_port` int NOT NULL COMMENT '消息队列端口',
  `mq_virtualhost` varchar(32) CHARACTER SET utf8 COLLATE utf8_general_ci NOT NULL COMMENT '消息队列虚拟主机',
  `mq_queue` varchar(32) CHARACTER SET utf8 COLLATE utf8_general_ci NOT NULL COMMENT '队列名称',
  `inform_num` int unsigned NOT NULL COMMENT '通知次数',
  `state` char(1) CHARACTER SET utf8 COLLATE utf8_general_ci NOT NULL COMMENT '处理状态，0:初始，1:成功',
  `returnfailure_date` datetime DEFAULT NULL COMMENT '回复失败时间',
  `returnsuccess_date` datetime DEFAULT NULL COMMENT '回复成功时间',
  `returnfailure_msg` varchar(2048) CHARACTER SET utf8 COLLATE utf8_general_ci DEFAULT NULL COMMENT '回复失败内容',
  `inform_date` datetime DEFAULT NULL COMMENT '最近通知时间',
  `stage_state1` char(1) CHARACTER SET utf8 COLLATE utf8_general_ci DEFAULT NULL COMMENT '阶段1处理状态, 0:初始，1:成功',
  `stage_state2` char(1) CHARACTER SET utf8 COLLATE utf8_general_ci DEFAULT NULL COMMENT '阶段2处理状态, 0:初始，1:成功',
  `stage_state3` char(1) CHARACTER SET utf8 COLLATE utf8_general_ci DEFAULT NULL COMMENT '阶段3处理状态, 0:初始，1:成功',
  `stage_state4` char(1) CHARACTER SET utf8 COLLATE utf8_general_ci DEFAULT NULL COMMENT '阶段4处理状态, 0:初始，1:成功',
  PRIMARY KEY (`id`) USING BTREE
) ENGINE=InnoDB DEFAULT CHARSET=utf8mb3 ROW_FORMAT=DYNAMIC;

-- ----------------------------
-- Records of mq_message
-- ----------------------------
BEGIN;
INSERT INTO `mq_message` VALUES ('f29a3149-7429-40be-8a4e-9909f32003b0', 'xc.mq.msgsync.coursepub', '111', NULL, NULL, '127.0.0.1', 5607, '/', 'xc.course.publish.queue', 0, '0', NULL, NULL, NULL, NULL, NULL, NULL, NULL, NULL);
COMMIT;

-- ----------------------------
-- Table structure for mq_message_history
-- ----------------------------
DROP TABLE IF EXISTS `mq_message_history`;
CREATE TABLE `mq_message_history` (
  `id` varchar(64) CHARACTER SET utf8 COLLATE utf8_general_ci NOT NULL COMMENT '消息id',
  `message_type` varchar(32) CHARACTER SET utf8 COLLATE utf8_general_ci NOT NULL COMMENT '消息类型代码',
  `business_key1` varchar(64) CHARACTER SET utf8 COLLATE utf8_general_ci DEFAULT NULL COMMENT '关联业务信息',
  `business_key2` varchar(255) CHARACTER SET utf8 COLLATE utf8_general_ci DEFAULT NULL COMMENT '关联业务信息',
  `business_key3` varchar(512) CHARACTER SET utf8 COLLATE utf8_general_ci DEFAULT NULL COMMENT '关联业务信息',
  `mq_host` varchar(32) CHARACTER SET utf8 COLLATE utf8_general_ci NOT NULL COMMENT '消息队列主机',
  `mq_port` int NOT NULL COMMENT '消息队列端口',
  `mq_virtualhost` varchar(32) CHARACTER SET utf8 COLLATE utf8_general_ci NOT NULL COMMENT '消息队列虚拟主机',
  `mq_queue` varchar(32) CHARACTER SET utf8 COLLATE utf8_general_ci NOT NULL COMMENT '队列名称',
  `inform_num` int(10) unsigned zerofill DEFAULT NULL COMMENT '通知次数',
  `state` int(10) unsigned zerofill DEFAULT NULL COMMENT '处理状态，0:初始，1:成功，2:失败',
  `returnfailure_date` datetime DEFAULT NULL COMMENT '回复失败时间',
  `returnsuccess_date` datetime DEFAULT NULL COMMENT '回复成功时间',
  `returnfailure_msg` varchar(255) CHARACTER SET utf8 COLLATE utf8_general_ci DEFAULT NULL COMMENT '回复失败内容',
  `inform_date` datetime DEFAULT NULL COMMENT '最近通知时间',
  `stage_state1` char(1) CHARACTER SET utf8 COLLATE utf8_general_ci DEFAULT NULL,
  `stage_state2` char(1) CHARACTER SET utf8 COLLATE utf8_general_ci DEFAULT NULL,
  `stage_state3` char(1) CHARACTER SET utf8 COLLATE utf8_general_ci DEFAULT NULL,
  `stage_state4` char(1) CHARACTER SET utf8 COLLATE utf8_general_ci DEFAULT NULL,
  PRIMARY KEY (`id`) USING BTREE
) ENGINE=InnoDB DEFAULT CHARSET=utf8mb3 ROW_FORMAT=DYNAMIC;

-- ----------------------------
-- Records of mq_message_history
-- ----------------------------
BEGIN;
COMMIT;

SET FOREIGN_KEY_CHECKS = 1;
